SourceSans_ExtraLight.ufo
<glyph name="question" format="2">
	<unicode hex="003F"/>
	<advance width="394"/>
	<outline>
		<contour>
			<point x="164" y="172" type="curve"/>
			<point x="192" y="172" type="line"/>
			<point x="172" y="329"/>
			<point x="342" y="394"/>
			<point x="342" y="532" type="curve" smooth="yes"/>
			<point x="342" y="614"/>
			<point x="288" y="682"/>
			<point x="192" y="682" type="curve" smooth="yes"/>
			<point x="124" y="682"/>
			<point x="74" y="648"/>
			<point x="36" y="606" type="curve"/>
			<point x="56" y="588" type="line"/>
			<point x="90" y="630"/>
			<point x="140" y="654"/>
			<point x="190" y="654" type="curve" smooth="yes"/>
			<point x="274" y="654"/>
			<point x="310" y="594"/>
			<point x="310" y="530" type="curve" smooth="yes"/>
			<point x="310" y="400"/>
			<point x="142" y="342"/>
		</contour>
		<contour>
			<point x="182" y="-12" type="curve" smooth="yes"/>
			<point x="200" y="-12"/>
			<point x="218" y="2"/>
			<point x="218" y="26" type="curve" smooth="yes"/>
			<point x="218" y="52"/>
			<point x="200" y="66"/>
			<point x="182" y="66" type="curve" smooth="yes"/>
			<point x="164" y="66"/>
			<point x="146" y="52"/>
			<point x="146" y="26" type="curve" smooth="yes"/>
			<point x="146" y="2"/>
			<point x="164" y="-12"/>
		</contour>
	</outline>
</glyph>
<glyph name="B" format="2">
	<unicode hex="0042"/>
	<advance width="574"/>
	<outline>
		<contour>
			<point x="100" y="0" type="line"/>
			<point x="284" y="0" type="line" smooth="yes"/>
			<point x="434" y="0"/>
			<point x="528" y="66"/>
			<point x="528" y="192" type="curve" smooth="yes"/>
			<point x="528" y="284"/>
			<point x="470" y="338"/>
			<point x="382" y="352" type="curve"/>
			<point x="382" y="356" type="line"/>
			<point x="450" y="376"/>
			<point x="486" y="430"/>
			<point x="486" y="500" type="curve" smooth="yes"/>
			<point x="486" y="608"/>
			<point x="404" y="660"/>
			<point x="272" y="660" type="curve" smooth="yes"/>
			<point x="100" y="660" type="line"/>
		</contour>
		<contour>
			<point x="132" y="366" type="line"/>
			<point x="132" y="632" type="line"/>
			<point x="258" y="632" type="line" smooth="yes"/>
			<point x="386" y="632"/>
			<point x="454" y="596"/>
			<point x="454" y="498" type="curve" smooth="yes"/>
			<point x="454" y="416"/>
			<point x="396" y="366"/>
			<point x="252" y="366" type="curve" smooth="yes"/>
		</contour>
		<contour>
			<point x="132" y="28" type="line"/>
			<point x="132" y="338" type="line"/>
			<point x="272" y="338" type="line" smooth="yes"/>
			<point x="414" y="338"/>
			<point x="496" y="290"/>
			<point x="496" y="190" type="curve" smooth="yes"/>
			<point x="496" y="78"/>
			<point x="410" y="28"/>
			<point x="272" y="28" type="curve" smooth="yes"/>
		</contour>
	</outline>
	<anchor name="aboveUC" x="280" y="682"/>
	<anchor name="belowLC" x="290" y="-22"/>
</glyph>
<glyph name="P" format="2">
	<unicode hex="0050"/>
	<advance width="542"/>
	<outline>
		<contour>
			<point x="100" y="0" type="line"/>
			<point x="132" y="0" type="line"/>
			<point x="132" y="292" type="line"/>
			<point x="262" y="292" type="line" smooth="yes"/>
			<point x="410" y="292"/>
			<point x="494" y="354"/>
			<point x="494" y="480" type="curve" smooth="yes"/>
			<point x="494" y="612"/>
			<point x="408" y="660"/>
			<point x="258" y="660" type="curve" smooth="yes"/>
			<point x="100" y="660" type="line"/>
		</contour>
		<contour>
			<point x="132" y="320" type="line"/>
			<point x="132" y="632" type="line"/>
			<point x="246" y="632" type="line" smooth="yes"/>
			<point x="390" y="632"/>
			<point x="460" y="596"/>
			<point x="460" y="480" type="curve" smooth="yes"/>
			<point x="460" y="366"/>
			<point x="392" y="320"/>
			<point x="250" y="320" type="curve" smooth="yes"/>
		</contour>
	</outline>
	<anchor name="aboverightUC" x="460" y="682"/>
	<anchor name="aboveUC" x="290" y="682"/>
	<anchor name="belowLC" x="118" y="-22"/>
</glyph>
<glyph name="S" format="2">
	<unicode hex="0053"/>
	<advance width="516"/>
	<outline>
		<contour>
			<point x="268" y="-12" type="curve" smooth="yes"/>
			<point x="394" y="-12"/>
			<point x="474" y="62"/>
			<point x="474" y="162" type="curve" smooth="yes"/>
			<point x="474" y="264"/>
			<point x="410" y="302"/>
			<point x="334" y="336" type="curve" smooth="yes"/>
			<point x="232" y="382" type="line" smooth="yes"/>
			<point x="185" y="403"/>
			<point x="116" y="434"/>
			<point x="116" y="516" type="curve" smooth="yes"/>
			<point x="116" y="592"/>
			<point x="178" y="642"/>
			<point x="270" y="642" type="curve" smooth="yes"/>
			<point x="339" y="642"/>
			<point x="392" y="614"/>
			<point x="432" y="574" type="curve"/>
			<point x="450" y="594" type="line"/>
			<point x="412" y="635"/>
			<point x="350" y="672"/>
			<point x="270" y="672" type="curve" smooth="yes"/>
			<point x="162" y="672"/>
			<point x="84" y="608"/>
			<point x="84" y="514" type="curve" smooth="yes"/>
			<point x="84" y="418"/>
			<point x="160" y="378"/>
			<point x="218" y="352" type="curve" smooth="yes"/>
			<point x="320" y="306" type="line" smooth="yes"/>
			<point x="386" y="276"/>
			<point x="442" y="248"/>
			<point x="442" y="160" type="curve" smooth="yes"/>
			<point x="442" y="76"/>
			<point x="374" y="18"/>
			<point x="268" y="18" type="curve" smooth="yes"/>
			<point x="188" y="18"/>
			<point x="117" y="53"/>
			<point x="70" y="108" type="curve"/>
			<point x="48" y="88" type="line"/>
			<point x="98" y="30"/>
			<point x="170" y="-12"/>
		</contour>
	</outline>
	<anchor name="aboveUC" x="268" y="682"/>
	<anchor name="baseLC" x="268" y="0"/>
	<anchor name="belowLC" x="268" y="-22"/>
</glyph>
<glyph name="Z" format="2">
  <advance width="538"/>
  <unicode hex="005A"/>
  <anchor x="280" y="682" name="aboveUC"/>
  <anchor x="280" y="-22" name="belowLC"/>
  <anchor x="280" y="0" name="baseLC"/>
  <outline>
    <contour>
      <point x="52" y="0" type="line"/>
      <point x="488" y="0" type="line"/>
      <point x="488" y="28" type="line"/>
      <point x="92" y="28" type="line"/>
      <point x="484" y="642" type="line"/>
      <point x="484" y="660" type="line"/>
      <point x="86" y="660" type="line"/>
      <point x="86" y="632" type="line"/>
      <point x="444" y="632" type="line"/>
      <point x="52" y="18" type="line"/>
    </contour>
  </outline>
</glyph>
<glyph name="bracketright" format="2">
	<unicode hex="005D"/>
	<advance width="270"/>
	<outline>
		<contour>
			<point x="18" y="-152" type="line"/>
			<point x="170" y="-152" type="line"/>
			<point x="170" y="708" type="line"/>
			<point x="18" y="708" type="line"/>
			<point x="18" y="686" type="line"/>
			<point x="146" y="686" type="line"/>
			<point x="146" y="-130" type="line"/>
			<point x="18" y="-130" type="line"/>
		</contour>
	</outline>
</glyph>
<glyph name="g" format="2">
	<unicode hex="0067"/>
	<advance width="480"/>
	<outline>
		<contour>
			<point x="250" y="-234" type="curve" smooth="yes"/>
			<point x="384" y="-234"/>
			<point x="470" y="-154"/>
			<point x="470" y="-74" type="curve" smooth="yes"/>
			<point x="470" y="0"/>
			<point x="422" y="34"/>
			<point x="316" y="34" type="curve" smooth="yes"/>
			<point x="210" y="34" type="line" smooth="yes"/>
			<point x="136" y="34"/>
			<point x="116" y="64"/>
			<point x="116" y="100" type="curve" smooth="yes"/>
			<point x="116" y="134"/>
			<point x="136" y="156"/>
			<point x="158" y="174" type="curve"/>
			<point x="180" y="160"/>
			<point x="212" y="152"/>
			<point x="240" y="152" type="curve" smooth="yes"/>
			<point x="332" y="152"/>
			<point x="404" y="226"/>
			<point x="404" y="322" type="curve" smooth="yes"/>
			<point x="404" y="381"/>
			<point x="378" y="422"/>
			<point x="346" y="446" type="curve"/>
			<point x="346" y="450" type="line"/>
			<point x="462" y="450" type="line"/>
			<point x="462" y="478" type="line"/>
			<point x="302" y="478" type="line"/>
			<point x="288" y="484"/>
			<point x="266" y="490"/>
			<point x="240" y="490" type="curve" smooth="yes"/>
			<point x="148" y="490"/>
			<point x="76" y="418"/>
			<point x="76" y="322" type="curve" smooth="yes"/>
			<point x="76" y="264"/>
			<point x="106" y="216"/>
			<point x="136" y="190" type="curve"/>
			<point x="136" y="186" type="line"/>
			<point x="116" y="172"/>
			<point x="84" y="142"/>
			<point x="84" y="98" type="curve" smooth="yes"/>
			<point x="84" y="62"/>
			<point x="102" y="36"/>
			<point x="126" y="22" type="curve"/>
			<point x="126" y="18" type="line"/>
			<point x="82" y="-14"/>
			<point x="54" y="-58"/>
			<point x="54" y="-100" type="curve" smooth="yes"/>
			<point x="54" y="-180"/>
			<point x="128" y="-234"/>
		</contour>
		<contour>
			<point x="240" y="180" type="curve" smooth="yes"/>
			<point x="170" y="180"/>
			<point x="108" y="238"/>
			<point x="108" y="322" type="curve" smooth="yes"/>
			<point x="108" y="408"/>
			<point x="168" y="462"/>
			<point x="240" y="462" type="curve" smooth="yes"/>
			<point x="312" y="462"/>
			<point x="372" y="408"/>
			<point x="372" y="322" type="curve" smooth="yes"/>
			<point x="372" y="238"/>
			<point x="310" y="180"/>
		</contour>
		<contour>
			<point x="252" y="-206" type="curve" smooth="yes"/>
			<point x="146" y="-206"/>
			<point x="86" y="-162"/>
			<point x="86" y="-98" type="curve" smooth="yes"/>
			<point x="86" y="-62"/>
			<point x="106" y="-22"/>
			<point x="154" y="10" type="curve"/>
			<point x="180" y="4"/>
			<point x="206" y="2"/>
			<point x="212" y="2" type="curve" smooth="yes"/>
			<point x="322" y="2" type="line" smooth="yes"/>
			<point x="398" y="2"/>
			<point x="438" y="-20"/>
			<point x="438" y="-76" type="curve" smooth="yes"/>
			<point x="438" y="-140"/>
			<point x="366" y="-206"/>
		</contour>
	</outline>
	<anchor name="aboveLC" x="250" y="502"/>
	<anchor name="belowLC" x="250" y="-232"/>
</glyph>
<glyph name="z" format="2">
  <advance width="396"/>
  <unicode hex="007A"/>
  <anchor x="220" y="502" name="aboveLC"/>
  <anchor x="210" y="-22" name="belowLC"/>
  <anchor x="200" y="240" name="center"/>
  <anchor x="210" y="0" name="baseLC"/>
  <outline>
    <contour>
      <point x="26" y="0" type="line"/>
      <point x="370" y="0" type="line"/>
      <point x="370" y="28" type="line"/>
      <point x="66" y="28" type="line"/>
      <point x="360" y="462" type="line"/>
      <point x="360" y="478" type="line"/>
      <point x="58" y="478" type="line"/>
      <point x="58" y="450" type="line"/>
      <point x="320" y="450" type="line"/>
      <point x="26" y="16" type="line"/>
    </contour>
  </outline>
</glyph>
<glyph name="Eogonek" format="2">
	<unicode hex="0118"/>
	<advance width="510"/>
	<outline>
		<contour>
			<point x="416" y="-214" type="curve" smooth="yes"/>
			<point x="446" y="-214"/>
			<point x="472" y="-200"/>
			<point x="488" y="-186" type="curve"/>
			<point x="474" y="-166" type="line"/>
			<point x="456" y="-180"/>
			<point x="440" y="-186"/>
			<point x="418" y="-186" type="curve" smooth="yes"/>
			<point x="388" y="-186"/>
			<point x="358" y="-168"/>
			<point x="358" y="-126" type="curve" smooth="yes"/>
			<point x="358" y="-64"/>
			<point x="426" y="0"/>
			<point x="462" y="0" type="curve" smooth="yes"/>
			<point x="464" y="0" type="line"/>
			<point x="464" y="28" type="line"/>
			<point x="132" y="28" type="line"/>
			<point x="132" y="338" type="line"/>
			<point x="402" y="338" type="line"/>
			<point x="402" y="366" type="line"/>
			<point x="132" y="366" type="line"/>
			<point x="132" y="632" type="line"/>
			<point x="454" y="632" type="line"/>
			<point x="454" y="660" type="line"/>
			<point x="100" y="660" type="line"/>
			<point x="100" y="0" type="line"/>
			<point x="408" y="0" type="line"/>
			<point x="364" y="-28"/>
			<point x="328" y="-74"/>
			<point x="328" y="-128" type="curve" smooth="yes"/>
			<point x="328" y="-188"/>
			<point x="368" y="-214"/>
		</contour>
	</outline>
	<anchor name="aboveUC" x="290" y="682"/>
	<anchor name="belowLC" x="300" y="-222"/>
</glyph>
<glyph name="eng" format="2">
	<unicode hex="014B"/>
	<advance width="526"/>
	<outline>
		<contour>
			<point x="340" y="-234" type="curve" smooth="yes"/>
			<point x="406" y="-234"/>
			<point x="438" y="-194"/>
			<point x="438" y="-102" type="curve" smooth="yes"/>
			<point x="438" y="308" type="line" smooth="yes"/>
			<point x="438" y="432"/>
			<point x="392" y="490"/>
			<point x="294" y="490" type="curve" smooth="yes"/>
			<point x="228" y="490"/>
			<point x="178" y="452"/>
			<point x="128" y="402" type="curve"/>
			<point x="126" y="402" type="line"/>
			<point x="122" y="478" type="line"/>
			<point x="96" y="478" type="line"/>
			<point x="96" y="0" type="line"/>
			<point x="126" y="0" type="line"/>
			<point x="126" y="366" type="line"/>
			<point x="188" y="430"/>
			<point x="232" y="462"/>
			<point x="292" y="462" type="curve" smooth="yes"/>
			<point x="374" y="462"/>
			<point x="408" y="410"/>
			<point x="408" y="304" type="curve" smooth="yes"/>
			<point x="408" y="-98" type="line" smooth="yes"/>
			<point x="408" y="-160"/>
			<point x="398" y="-206"/>
			<point x="342" y="-206" type="curve" smooth="yes"/>
			<point x="324" y="-206"/>
			<point x="302" y="-200"/>
			<point x="290" y="-196" type="curve"/>
			<point x="282" y="-220" type="line"/>
			<point x="296" y="-228"/>
			<point x="322" y="-234"/>
		</contour>
	</outline>
	<anchor name="aboveLC" x="280" y="502"/>
	<anchor name="belowLC" x="270" y="-222"/>
</glyph>
<glyph name="tbar" format="2">
	<unicode hex="0167"/>
	<advance width="302"/>
	<outline>
		<contour>
			<point x="30" y="238" type="line"/>
			<point x="278" y="238" type="line"/>
			<point x="278" y="266" type="line"/>
			<point x="106" y="266" type="line"/>
			<point x="30" y="262" type="line"/>
		</contour>
		<component base="t"/>
	</outline>
	<anchor name="aboveLC" x="130" y="632"/>
	<anchor name="belowLC" x="200" y="-22"/>
</glyph>
<glyph name="uogonek" format="2">
	<unicode hex="0173"/>
	<advance width="524"/>
	<outline>
		<contour>
			<point x="402" y="-212" type="curve" smooth="yes"/>
			<point x="432" y="-212"/>
			<point x="456" y="-198"/>
			<point x="472" y="-184" type="curve"/>
			<point x="458" y="-164" type="line"/>
			<point x="440" y="-178"/>
			<point x="426" y="-184"/>
			<point x="404" y="-184" type="curve" smooth="yes"/>
			<point x="374" y="-184"/>
			<point x="346" y="-166"/>
			<point x="346" y="-124" type="curve" smooth="yes"/>
			<point x="346" y="-80"/>
			<point x="384" y="-28"/>
			<point x="428" y="0" type="curve"/>
			<point x="428" y="478" type="line"/>
			<point x="398" y="478" type="line"/>
			<point x="398" y="120" type="line"/>
			<point x="338" y="48"/>
			<point x="294" y="16"/>
			<point x="234" y="16" type="curve" smooth="yes"/>
			<point x="151" y="16"/>
			<point x="118" y="68"/>
			<point x="118" y="174" type="curve" smooth="yes"/>
			<point x="118" y="478" type="line"/>
			<point x="88" y="478" type="line"/>
			<point x="88" y="170" type="line" smooth="yes"/>
			<point x="88" y="46"/>
			<point x="134" y="-12"/>
			<point x="232" y="-12" type="curve" smooth="yes"/>
			<point x="298" y="-12"/>
			<point x="348" y="26"/>
			<point x="396" y="82" type="curve"/>
			<point x="398" y="82" type="line"/>
			<point x="402" y="8" type="line"/>
			<point x="356" y="-24"/>
			<point x="316" y="-76"/>
			<point x="316" y="-126" type="curve" smooth="yes"/>
			<point x="316" y="-186"/>
			<point x="354" y="-212"/>
		</contour>
	</outline>
	<anchor name="aboveLC" x="260" y="502"/>
</glyph>
<glyph name="longs" format="2">
	<unicode hex="017F"/>
	<advance width="236"/>
	<outline>
		<contour>
			<point x="100" y="0" type="line"/>
			<point x="130" y="0" type="line"/>
			<point x="130" y="592" type="line" smooth="yes"/>
			<point x="130" y="664"/>
			<point x="154" y="706"/>
			<point x="208" y="706" type="curve" smooth="yes"/>
			<point x="226" y="706"/>
			<point x="246" y="702"/>
			<point x="266" y="694" type="curve"/>
			<point x="276" y="718" type="line"/>
			<point x="256" y="728"/>
			<point x="230" y="734"/>
			<point x="210" y="734" type="curve" smooth="yes"/>
			<point x="142" y="734"/>
			<point x="100" y="690"/>
			<point x="100" y="596" type="curve" smooth="yes"/>
		</contour>
		<contour>
			<point x="34" y="450" type="line"/>
			<point x="114" y="450" type="line"/>
			<point x="114" y="478" type="line"/>
			<point x="100" y="478" type="line"/>
			<point x="34" y="474" type="line"/>
		</contour>
	</outline>
	<anchor name="aboveUC" x="200" y="732"/>
	<anchor name="belowLC" x="116" y="-22"/>
</glyph>
<glyph name="Fhook" format="2">
	<unicode hex="0191"/>
	<advance width="470"/>
	<outline>
		<contour>
			<point x="-26" y="-140" type="line"/>
			<point x="-12" y="-146"/>
			<point x="12" y="-152"/>
			<point x="32" y="-152" type="curve" smooth="yes"/>
			<point x="98" y="-152"/>
			<point x="132" y="-112"/>
			<point x="132" y="-20" type="curve" smooth="yes"/>
			<point x="132" y="326" type="line"/>
			<point x="402" y="326" type="line"/>
			<point x="402" y="354" type="line"/>
			<point x="132" y="354" type="line"/>
			<point x="132" y="632" type="line"/>
			<point x="452" y="632" type="line"/>
			<point x="452" y="660" type="line"/>
			<point x="100" y="660" type="line"/>
			<point x="100" y="-12" type="line" smooth="yes"/>
			<point x="100" y="-74"/>
			<point x="90" y="-120"/>
			<point x="34" y="-120" type="curve" smooth="yes"/>
			<point x="14" y="-120"/>
			<point x="-6" y="-114"/>
			<point x="-18" y="-110" type="curve"/>
		</contour>
	</outline>
	<anchor name="aboveUC" x="284" y="682"/>
	<anchor name="belowLC" x="116" y="-22"/>
</glyph>
<glyph name="Khook" format="2">
	<unicode hex="0198"/>
	<advance width="550"/>
	<outline>
		<contour>
			<point x="100" y="0" type="line"/>
			<point x="132" y="0" type="line"/>
			<point x="132" y="234" type="line"/>
			<point x="274" y="394" type="line"/>
			<point x="500" y="0" type="line"/>
			<point x="538" y="0" type="line"/>
			<point x="298" y="418" type="line"/>
			<point x="510" y="660" type="line"/>
			<point x="470" y="660" type="line"/>
			<point x="134" y="280" type="line"/>
			<point x="132" y="280" type="line"/>
			<point x="132" y="660" type="line"/>
			<point x="100" y="660" type="line"/>
		</contour>
		<contour>
			<point x="404" y="536" type="move"/>
			<point x="452" y="625"/>
			<point x="472" y="634"/>
			<point x="500" y="634" type="curve" smooth="yes"/>
			<point x="506" y="634"/>
			<point x="512" y="634"/>
			<point x="520" y="632" type="curve"/>
			<point x="526" y="664" type="line"/>
			<point x="520" y="666"/>
			<point x="512" y="668"/>
			<point x="504" y="668" type="curve" smooth="yes"/>
			<point x="457" y="668"/>
			<point x="434" y="653"/>
			<point x="376" y="546" type="curve"/>
		</contour>
	</outline>
	<anchor name="aboverightUC" x="500" y="682"/>
	<anchor name="aboveUC" x="304" y="682"/>
	<anchor name="belowLC" x="324" y="-22"/>
</glyph>
<glyph name="khook" format="2">
	<unicode hex="0199"/>
	<advance width="452"/>
	<outline>
		<contour>
			<point x="96" y="0" type="line"/>
			<point x="126" y="0" type="line"/>
			<point x="126" y="132" type="line"/>
			<point x="240" y="266" type="line"/>
			<point x="406" y="0" type="line"/>
			<point x="440" y="0" type="line"/>
			<point x="258" y="290" type="line"/>
			<point x="412" y="478" type="line"/>
			<point x="376" y="478" type="line"/>
			<point x="128" y="174" type="line"/>
			<point x="126" y="174" type="line"/>
			<point x="126" y="562" type="line" smooth="yes"/>
			<point x="126" y="646"/>
			<point x="158" y="706"/>
			<point x="234" y="706" type="curve" smooth="yes"/>
			<point x="253" y="706"/>
			<point x="274" y="702"/>
			<point x="294" y="694" type="curve"/>
			<point x="304" y="718" type="line"/>
			<point x="282" y="728"/>
			<point x="256" y="734"/>
			<point x="236" y="734" type="curve" smooth="yes"/>
			<point x="150" y="734"/>
			<point x="96" y="674"/>
			<point x="96" y="566" type="curve" smooth="yes"/>
		</contour>
	</outline>
	<anchor name="aboverightLC" x="390" y="502"/>
	<anchor name="aboveUC" x="270" y="732"/>
	<anchor name="belowLC" x="260" y="-22"/>
</glyph>
<glyph name="Nhookleft" format="2">
	<unicode hex="019D"/>
	<advance width="632"/>
	<outline>
		<contour>
			<point x="32" y="-152" type="curve" smooth="yes"/>
			<point x="98" y="-152"/>
			<point x="130" y="-112"/>
			<point x="130" y="-20" type="curve" smooth="yes"/>
			<point x="130" y="434" type="line" smooth="yes"/>
			<point x="130" y="496"/>
			<point x="128" y="552"/>
			<point x="126" y="614" type="curve"/>
			<point x="130" y="614" type="line"/>
			<point x="154" y="572"/>
			<point x="180" y="528"/>
			<point x="206" y="484" type="curve" smooth="yes"/>
			<point x="498" y="0" type="line"/>
			<point x="532" y="0" type="line"/>
			<point x="532" y="660" type="line"/>
			<point x="502" y="660" type="line"/>
			<point x="502" y="232" type="line" smooth="yes"/>
			<point x="502" y="170"/>
			<point x="504" y="110"/>
			<point x="506" y="46" type="curve"/>
			<point x="502" y="46" type="line"/>
			<point x="478" y="88"/>
			<point x="452" y="132"/>
			<point x="426" y="176" type="curve" smooth="yes"/>
			<point x="134" y="660" type="line"/>
			<point x="100" y="660" type="line"/>
			<point x="100" y="-12" type="line" smooth="yes"/>
			<point x="100" y="-74"/>
			<point x="90" y="-120"/>
			<point x="34" y="-120" type="curve" smooth="yes"/>
			<point x="14" y="-120"/>
			<point x="-6" y="-114"/>
			<point x="-18" y="-110" type="curve"/>
			<point x="-26" y="-140" type="line"/>
			<point x="-12" y="-146"/>
			<point x="12" y="-152"/>
		</contour>
	</outline>
	<anchor name="aboveUC" x="330" y="682"/>
	<anchor name="belowLC" x="320" y="-22"/>
</glyph>
<glyph name="ohorn" format="2">
	<unicode hex="01A1"/>
	<advance width="532"/>
	<outline>
		<contour>
			<point x="383" y="446" type="line"/>
			<point x="434" y="460"/>
			<point x="492" y="492"/>
			<point x="492" y="570" type="curve" smooth="yes"/>
			<point x="492" y="592"/>
			<point x="484" y="614"/>
			<point x="472" y="636" type="curve"/>
			<point x="446" y="620" type="line"/>
			<point x="455" y="603"/>
			<point x="460" y="584"/>
			<point x="460" y="568" type="curve" smooth="yes"/>
			<point x="460" y="510"/>
			<point x="424" y="478"/>
			<point x="352" y="467" type="curve"/>
		</contour>
		<component base="o"/>
	</outline>
	<anchor name="aboveLC" x="266" y="502"/>
	<anchor name="belowLC" x="266" y="-22"/>
</glyph>
<glyph name="Yhook" format="2">
	<unicode hex="01B3"/>
	<advance width="436"/>
	<outline>
		<contour>
			<point x="202" y="0" type="line"/>
			<point x="234" y="0" type="line"/>
			<point x="234" y="272" type="line"/>
			<point x="432" y="660" type="line"/>
			<point x="400" y="660" type="line"/>
			<point x="294" y="446" type="line"/>
			<point x="272" y="398"/>
			<point x="246" y="352"/>
			<point x="220" y="304" type="curve"/>
			<point x="216" y="304" type="line"/>
			<point x="190" y="352"/>
			<point x="168" y="398"/>
			<point x="144" y="446" type="curve"/>
			<point x="38" y="660" type="line"/>
			<point x="4" y="660" type="line"/>
			<point x="202" y="272" type="line"/>
		</contour>
		<contour>
			<point x="370" y="536" type="move"/>
			<point x="418" y="625"/>
			<point x="438" y="634"/>
			<point x="466" y="634" type="curve" smooth="yes"/>
			<point x="472" y="634"/>
			<point x="478" y="634"/>
			<point x="486" y="632" type="curve"/>
			<point x="492" y="664" type="line"/>
			<point x="486" y="666"/>
			<point x="478" y="668"/>
			<point x="470" y="668" type="curve" smooth="yes"/>
			<point x="423" y="668"/>
			<point x="400" y="653"/>
			<point x="342" y="546" type="curve"/>
		</contour>
	</outline>
	<anchor name="aboverightUC" x="430" y="682"/>
	<anchor name="aboveUC" x="220" y="682"/>
	<anchor name="belowLC" x="220" y="-22"/>
</glyph>
<glyph name="Astroke" format="2">
	<unicode hex="023A"/>
	<advance width="520"/>
	<outline>
		<contour>
			<point x="142" y="-42" type="line"/>
			<point x="400" y="694" type="line"/>
			<point x="374" y="700" type="line"/>
			<point x="116" y="-36" type="line"/>
		</contour>
		<component base="A"/>
	</outline>
	<anchor name="aboveUC" x="260" y="682"/>
	<anchor name="belowLC" x="260" y="-22"/>
</glyph>
<glyph name="Cstroke" format="2">
	<unicode hex="023B"/>
	<advance width="562"/>
	<outline>
		<contour>
			<point x="182" y="-42" type="line"/>
			<point x="440" y="694" type="line"/>
			<point x="414" y="700" type="line"/>
			<point x="156" y="-36" type="line"/>
		</contour>
		<component base="C"/>
	</outline>
	<anchor name="aboveUC" x="320" y="682"/>
	<anchor name="belowLC" x="340" y="-22"/>
</glyph>
<glyph name="alphalatin" format="2">
	<unicode hex="0251"/>
	<advance width="548"/>
	<outline>
		<contour>
			<point x="252" y="-12" type="curve" smooth="yes"/>
			<point x="318" y="-12"/>
			<point x="372" y="24"/>
			<point x="412" y="64" type="curve"/>
			<point x="414" y="64" type="line"/>
			<point x="414" y="10"/>
			<point x="432" y="-8"/>
			<point x="462" y="-8" type="curve" smooth="yes"/>
			<point x="472" y="-8"/>
			<point x="484" y="-4"/>
			<point x="488" y="-2" type="curve"/>
			<point x="482" y="22" type="line"/>
			<point x="474" y="20"/>
			<point x="470" y="20"/>
			<point x="466" y="20" type="curve" smooth="yes"/>
			<point x="454" y="20"/>
			<point x="444" y="30"/>
			<point x="444" y="50" type="curve" smooth="yes"/>
			<point x="444" y="478" type="line"/>
			<point x="416" y="478" type="line"/>
			<point x="414" y="432" type="line"/>
			<point x="412" y="432" type="line"/>
			<point x="366" y="468"/>
			<point x="326" y="490"/>
			<point x="268" y="490" type="curve" smooth="yes"/>
			<point x="152" y="490"/>
			<point x="54" y="392"/>
			<point x="54" y="238" type="curve" smooth="yes"/>
			<point x="54" y="76"/>
			<point x="132" y="-12"/>
		</contour>
		<contour>
			<point x="254" y="16" type="curve" smooth="yes"/>
			<point x="146" y="16"/>
			<point x="86" y="106"/>
			<point x="86" y="238" type="curve" smooth="yes"/>
			<point x="86" y="362"/>
			<point x="164" y="462"/>
			<point x="266" y="462" type="curve" smooth="yes"/>
			<point x="316" y="462"/>
			<point x="360" y="444"/>
			<point x="414" y="396" type="curve"/>
			<point x="414" y="100" type="line"/>
			<point x="360" y="46"/>
			<point x="310" y="16"/>
		</contour>
	</outline>
	<anchor name="aboveLC" x="270" y="502"/>
	<anchor name="belowLC" x="270" y="-22"/>
</glyph>
<glyph name="eopenreversedrhotic" format="2">
	<unicode hex="025D"/>
	<advance width="540"/>
	<outline>
		<contour>
			<point x="206" y="-12" type="curve" smooth="yes"/>
			<point x="314" y="-12"/>
			<point x="386" y="48"/>
			<point x="386" y="132" type="curve" smooth="yes"/>
			<point x="386" y="202"/>
			<point x="328" y="238"/>
			<point x="276" y="252" type="curve"/>
			<point x="276" y="256" type="line"/>
			<point x="426" y="328" type="line"/>
			<point x="426" y="304" type="line" smooth="yes"/>
			<point x="426" y="222"/>
			<point x="460" y="194"/>
			<point x="502" y="194" type="curve" smooth="yes"/>
			<point x="528" y="194"/>
			<point x="546" y="206"/>
			<point x="560" y="216" type="curve"/>
			<point x="544" y="238" type="line"/>
			<point x="536" y="230"/>
			<point x="522" y="222"/>
			<point x="506" y="222" type="curve" smooth="yes"/>
			<point x="472" y="222"/>
			<point x="454" y="242"/>
			<point x="454" y="318" type="curve" smooth="yes"/>
			<point x="454" y="330"/>
			<point x="454" y="340"/>
			<point x="456" y="358" type="curve"/>
			<point x="446" y="364" type="line"/>
			<point x="318" y="304" type="line"/>
			<point x="328" y="294" type="line"/>
			<point x="349" y="320"/>
			<point x="358" y="346"/>
			<point x="358" y="372" type="curve" smooth="yes"/>
			<point x="358" y="448"/>
			<point x="290" y="490"/>
			<point x="210" y="490" type="curve" smooth="yes"/>
			<point x="150" y="490"/>
			<point x="104" y="472"/>
			<point x="64" y="439" type="curve"/>
			<point x="80" y="418" type="line"/>
			<point x="122" y="450"/>
			<point x="162" y="462"/>
			<point x="212" y="462" type="curve" smooth="yes"/>
			<point x="274" y="462"/>
			<point x="326" y="432"/>
			<point x="326" y="370" type="curve" smooth="yes"/>
			<point x="326" y="312"/>
			<point x="281" y="266"/>
			<point x="178" y="266" type="curve" smooth="yes"/>
			<point x="134" y="266" type="line"/>
			<point x="134" y="238" type="line"/>
			<point x="192" y="238" type="line" smooth="yes"/>
			<point x="294" y="238"/>
			<point x="354" y="198"/>
			<point x="354" y="133" type="curve" smooth="yes"/>
			<point x="354" y="62"/>
			<point x="292" y="16"/>
			<point x="202" y="16" type="curve" smooth="yes"/>
			<point x="146" y="16"/>
			<point x="104" y="28"/>
			<point x="56" y="66" type="curve"/>
			<point x="40" y="47" type="line"/>
			<point x="92" y="4"/>
			<point x="138" y="-12"/>
		</contour>
	</outline>
	<anchor name="aboveLC" x="212" y="502"/>
	<anchor name="belowLC" x="216" y="-22"/>
</glyph>
<glyph name="gsmall" format="2">
	<unicode hex="0262"/>
	<advance width="482"/>
	<outline>
		<contour>
			<point x="274" y="-12" type="curve" smooth="yes"/>
			<point x="342" y="-12"/>
			<point x="394" y="15"/>
			<point x="426" y="46" type="curve"/>
			<point x="426" y="234" type="line"/>
			<point x="268" y="234" type="line"/>
			<point x="268" y="206" type="line"/>
			<point x="396" y="206" type="line"/>
			<point x="396" y="59" type="line"/>
			<point x="370" y="35"/>
			<point x="326" y="16"/>
			<point x="277" y="16" type="curve" smooth="yes"/>
			<point x="160" y="16"/>
			<point x="84" y="102"/>
			<point x="84" y="242" type="curve" smooth="yes"/>
			<point x="84" y="376"/>
			<point x="166" y="462"/>
			<point x="280" y="462" type="curve" smooth="yes"/>
			<point x="332" y="462"/>
			<point x="374" y="442"/>
			<point x="404" y="412" type="curve"/>
			<point x="422" y="430" type="line"/>
			<point x="390" y="464"/>
			<point x="346" y="490"/>
			<point x="280" y="490" type="curve" smooth="yes"/>
			<point x="145" y="490"/>
			<point x="54" y="393"/>
			<point x="54" y="242" type="curve" smooth="yes"/>
			<point x="54" y="84"/>
			<point x="143" y="-12"/>
		</contour>
	</outline>
	<anchor name="aboveLC" x="270" y="502"/>
	<anchor name="belowLC" x="270" y="-22"/>
</glyph>
<glyph name="rhookturned" format="2">
	<unicode hex="027B"/>
	<advance width="306"/>
	<outline>
		<contour>
			<point x="268" y="-234" type="curve" smooth="yes"/>
			<point x="284" y="-234"/>
			<point x="306" y="-228"/>
			<point x="316" y="-222" type="curve"/>
			<point x="308" y="-196" type="line"/>
			<point x="298" y="-200"/>
			<point x="282" y="-206"/>
			<point x="266" y="-206" type="curve" smooth="yes"/>
			<point x="222" y="-206"/>
			<point x="210" y="-164"/>
			<point x="210" y="-104" type="curve" smooth="yes"/>
			<point x="210" y="478" type="line"/>
			<point x="180" y="478" type="line"/>
			<point x="180" y="146" type="line"/>
			<point x="142" y="52"/>
			<point x="90" y="18"/>
			<point x="46" y="18" type="curve" smooth="yes"/>
			<point x="28" y="18"/>
			<point x="18" y="20"/>
			<point x="6" y="24" type="curve"/>
			<point x="-4" y="-2" type="line"/>
			<point x="12" y="-10"/>
			<point x="26" y="-12"/>
			<point x="42" y="-12" type="curve" smooth="yes"/>
			<point x="102" y="-12"/>
			<point x="148" y="32"/>
			<point x="178" y="90" type="curve"/>
			<point x="180" y="90" type="line"/>
			<point x="180" y="-108" type="line" smooth="yes"/>
			<point x="180" y="-198"/>
			<point x="208" y="-234"/>
		</contour>
	</outline>
	<anchor name="aboveLC" x="190" y="502"/>
	<anchor name="belowLC" x="130" y="-222"/>
</glyph>
<glyph name="ezh" format="2">
	<unicode hex="0292"/>
	<advance width="396"/>
	<outline>
		<contour>
			<point x="190" y="-234" type="curve" smooth="yes"/>
			<point x="285" y="-234"/>
			<point x="380" y="-158"/>
			<point x="380" y="-22" type="curve" smooth="yes"/>
			<point x="380" y="106"/>
			<point x="286" y="194"/>
			<point x="140" y="162" type="curve"/>
			<point x="360" y="462" type="line"/>
			<point x="360" y="478" type="line"/>
			<point x="48" y="478" type="line"/>
			<point x="48" y="450" type="line"/>
			<point x="320" y="450" type="line"/>
			<point x="96" y="146" type="line"/>
			<point x="116" y="120" type="line"/>
			<point x="140" y="132"/>
			<point x="154" y="140"/>
			<point x="184" y="140" type="curve" smooth="yes"/>
			<point x="292" y="140"/>
			<point x="348" y="77"/>
			<point x="348" y="-24" type="curve" smooth="yes"/>
			<point x="348" y="-132"/>
			<point x="275" y="-206"/>
			<point x="192" y="-206" type="curve" smooth="yes"/>
			<point x="105" y="-206"/>
			<point x="58" y="-172"/>
			<point x="22" y="-137" type="curve"/>
			<point x="2" y="-159" type="line"/>
			<point x="40" y="-194"/>
			<point x="93" y="-234"/>
		</contour>
	</outline>
	<anchor name="aboveLC" x="210" y="502"/>
	<anchor name="belowLC" x="190" y="-222"/>
</glyph>
<glyph name="variacmb" format="2">
	<unicode hex="0340"/>
	<outline>
		<contour>
			<point x="6" y="564" type="line"/>
			<point x="30" y="564" type="line"/>
			<point x="-14" y="730" type="line"/>
			<point x="-48" y="730" type="line"/>
			<point x="-50" y="726" type="line"/>
		</contour>
	</outline>
	<anchor name="_aboveLC" x="0" y="502"/>
</glyph>
<glyph name="lownumeralsign" format="2">
	<unicode hex="0375"/>
	<advance width="208"/>
	<outline>
		<contour>
			<point x="74" y="0" type="line"/>
			<point x="102" y="0" type="line"/>
			<point x="126" y="196" type="line"/>
			<point x="106" y="196" type="line"/>
			<point x="82" y="64" type="line"/>
		</contour>
	</outline>
</glyph>
<glyph name="Gamma" format="2">
	<unicode hex="0393"/>
	<advance width="480"/>
	<outline>
		<contour>
			<point x="100" y="0" type="line"/>
			<point x="132" y="0" type="line"/>
			<point x="132" y="632" type="line"/>
			<point x="452" y="632" type="line"/>
			<point x="452" y="660" type="line"/>
			<point x="100" y="660" type="line"/>
		</contour>
	</outline>
	<anchor name="aboveUC" x="290" y="682"/>
</glyph>
<glyph name="alpha" format="2">
	<unicode hex="03B1"/>
	<advance width="532"/>
	<outline>
		<contour>
			<point x="232" y="-12" type="curve" smooth="yes"/>
			<point x="298" y="-12"/>
			<point x="354" y="26"/>
			<point x="394" y="100" type="curve"/>
			<point x="396" y="100" type="line"/>
			<point x="382" y="26"/>
			<point x="418" y="-12"/>
			<point x="466" y="-12" type="curve" smooth="yes"/>
			<point x="486" y="-12"/>
			<point x="500" y="-6"/>
			<point x="510" y="-2" type="curve"/>
			<point x="503" y="24" type="line"/>
			<point x="494" y="20"/>
			<point x="480" y="16"/>
			<point x="468" y="16" type="curve" smooth="yes"/>
			<point x="442" y="16"/>
			<point x="420" y="38"/>
			<point x="420" y="70" type="curve" smooth="yes"/>
			<point x="420" y="170"/>
			<point x="452" y="340"/>
			<point x="478" y="478" type="curve"/>
			<point x="448" y="478" type="line"/>
			<point x="424" y="340" type="line"/>
			<point x="422" y="340" type="line"/>
			<point x="398" y="450"/>
			<point x="326" y="490"/>
			<point x="262" y="490" type="curve" smooth="yes"/>
			<point x="152" y="490"/>
			<point x="54" y="394"/>
			<point x="54" y="225" type="curve" smooth="yes"/>
			<point x="54" y="67"/>
			<point x="128" y="-12"/>
		</contour>
		<contour>
			<point x="234" y="16" type="curve" smooth="yes"/>
			<point x="140" y="16"/>
			<point x="86" y="99"/>
			<point x="86" y="225" type="curve" smooth="yes"/>
			<point x="86" y="376"/>
			<point x="170" y="462"/>
			<point x="260" y="462" type="curve" smooth="yes"/>
			<point x="309" y="462"/>
			<point x="376" y="442"/>
			<point x="408" y="298" type="curve"/>
			<point x="400" y="202" type="line" smooth="yes"/>
			<point x="392" y="101"/>
			<point x="314" y="16"/>
		</contour>
	</outline>
	<anchor name="aboveLC" x="280" y="502"/>
	<anchor name="belowLC" x="270" y="-22"/>
</glyph>
<glyph name="eta" format="2">
	<unicode hex="03B7"/>
	<advance width="524"/>
	<outline>
		<contour>
			<point x="406" y="-180" type="curve"/>
			<point x="436" y="-180" type="line"/>
			<point x="436" y="308" type="line" smooth="yes"/>
			<point x="436" y="432"/>
			<point x="398" y="490"/>
			<point x="314" y="490" type="curve" smooth="yes"/>
			<point x="240" y="490"/>
			<point x="184" y="456"/>
			<point x="128" y="364" type="curve"/>
			<point x="126" y="364" type="line"/>
			<point x="122" y="478" type="line"/>
			<point x="92" y="478" type="line"/>
			<point x="96" y="430"/>
			<point x="96" y="398"/>
			<point x="96" y="360" type="curve" smooth="yes"/>
			<point x="96" y="0" type="line"/>
			<point x="126" y="0" type="line"/>
			<point x="126" y="324" type="line"/>
			<point x="198" y="432"/>
			<point x="244" y="462"/>
			<point x="312" y="462" type="curve" smooth="yes"/>
			<point x="380" y="462"/>
			<point x="408" y="410"/>
			<point x="408" y="304" type="curve" smooth="yes"/>
			<point x="408" y="143"/>
			<point x="408" y="-19"/>
		</contour>
	</outline>
	<anchor name="aboveLC" x="280" y="502"/>
	<anchor name="belowLC" x="112" y="-22"/>
</glyph>
<glyph name="nu" format="2">
	<unicode hex="03BD"/>
	<advance width="434"/>
	<outline>
		<contour>
			<point x="202" y="0" type="curve"/>
			<point x="236" y="0" type="line"/>
			<point x="326" y="162"/>
			<point x="389" y="314"/>
			<point x="412" y="478" type="curve"/>
			<point x="380" y="478" type="line"/>
			<point x="366" y="334"/>
			<point x="294" y="166"/>
			<point x="226" y="32" type="curve"/>
			<point x="222" y="32" type="line"/>
			<point x="188" y="184"/>
			<point x="118" y="374"/>
			<point x="40" y="490" type="curve"/>
			<point x="12" y="478" type="line"/>
			<point x="98" y="352"/>
			<point x="160" y="174"/>
		</contour>
	</outline>
	<anchor name="aboveLC" x="220" y="502"/>
	<anchor name="belowLC" x="220" y="-22"/>
</glyph>
<glyph name="sigma" format="2">
	<unicode hex="03C3"/>
	<advance width="524"/>
	<outline>
		<contour>
			<point x="258" y="-12" type="curve" smooth="yes"/>
			<point x="366" y="-12"/>
			<point x="458" y="76"/>
			<point x="458" y="234" type="curve" smooth="yes"/>
			<point x="458" y="338"/>
			<point x="416" y="412"/>
			<point x="348" y="450" type="curve"/>
			<point x="348" y="454" type="line"/>
			<point x="404" y="454"/>
			<point x="456" y="452"/>
			<point x="512" y="448" type="curve"/>
			<point x="512" y="478" type="line"/>
			<point x="260" y="478" type="line" smooth="yes"/>
			<point x="152" y="478"/>
			<point x="54" y="404"/>
			<point x="54" y="234" type="curve" smooth="yes"/>
			<point x="54" y="76"/>
			<point x="150" y="-12"/>
		</contour>
		<contour>
			<point x="258" y="16" type="curve" smooth="yes"/>
			<point x="162" y="16"/>
			<point x="86" y="102"/>
			<point x="86" y="234" type="curve" smooth="yes"/>
			<point x="86" y="376"/>
			<point x="164" y="450"/>
			<point x="260" y="450" type="curve" smooth="yes"/>
			<point x="366" y="450"/>
			<point x="426" y="346"/>
			<point x="426" y="234" type="curve" smooth="yes"/>
			<point x="426" y="102"/>
			<point x="354" y="16"/>
		</contour>
	</outline>
	<anchor name="aboveLC" x="270" y="502"/>
	<anchor name="belowLC" x="260" y="-22"/>
</glyph>
<glyph name="theta.a" format="2">
	<unicode hex="03D1"/>
	<advance width="500"/>
	<outline>
		<contour>
			<point x="250" y="-12" type="curve" smooth="yes"/>
			<point x="346" y="-12"/>
			<point x="432" y="64"/>
			<point x="432" y="368" type="curve" smooth="yes"/>
			<point x="432" y="614"/>
			<point x="373" y="734"/>
			<point x="254" y="734" type="curve" smooth="yes"/>
			<point x="160" y="734"/>
			<point x="82" y="628"/>
			<point x="82" y="512" type="curve" smooth="yes"/>
			<point x="82" y="370"/>
			<point x="150" y="334"/>
			<point x="408" y="334" type="curve"/>
			<point x="410" y="362" type="line"/>
			<point x="168" y="362"/>
			<point x="114" y="390"/>
			<point x="114" y="514" type="curve" smooth="yes"/>
			<point x="114" y="616"/>
			<point x="176" y="706"/>
			<point x="254" y="706" type="curve" smooth="yes"/>
			<point x="347" y="706"/>
			<point x="400" y="608"/>
			<point x="400" y="368" type="curve" smooth="yes"/>
			<point x="400" y="90"/>
			<point x="332" y="16"/>
			<point x="252" y="16" type="curve" smooth="yes"/>
			<point x="188" y="16"/>
			<point x="138" y="58"/>
			<point x="114" y="170" type="curve" smooth="yes"/>
			<point x="102" y="228"/>
			<point x="96" y="256"/>
			<point x="84" y="278" type="curve"/>
			<point x="56" y="270" type="line"/>
			<point x="70" y="244"/>
			<point x="74" y="218"/>
			<point x="86" y="163" type="curve" smooth="yes"/>
			<point x="114" y="34"/>
			<point x="168" y="-12"/>
		</contour>
	</outline>
	<anchor name="aboveUC" x="260" y="732"/>
	<anchor name="belowLC" x="240" y="-22"/>
</glyph>
<glyph name="phi" format="2">
	<unicode hex="03D5"/>
	<unicode hex="03C6"/>
	<advance width="634"/>
	<outline>
		<contour>
			<point x="302" y="-180" type="line"/>
			<point x="332" y="-180" type="line"/>
			<point x="332" y="638" type="line"/>
			<point x="302" y="638" type="line"/>
		</contour>
		<contour>
			<point x="308" y="-10" type="curve"/>
			<point x="308" y="16" type="line"/>
			<point x="191" y="16"/>
			<point x="86" y="104"/>
			<point x="86" y="240" type="curve" smooth="yes"/>
			<point x="86" y="376"/>
			<point x="191" y="462"/>
			<point x="308" y="462" type="curve"/>
			<point x="308" y="488" type="line"/>
			<point x="179" y="488"/>
			<point x="54" y="400"/>
			<point x="54" y="240" type="curve" smooth="yes"/>
			<point x="54" y="80"/>
			<point x="179" y="-10"/>
		</contour>
		<contour>
			<point x="326" y="-10" type="line"/>
			<point x="455" y="-10"/>
			<point x="580" y="80"/>
			<point x="580" y="240" type="curve" smooth="yes"/>
			<point x="580" y="400"/>
			<point x="461" y="488"/>
			<point x="326" y="488" type="curve"/>
			<point x="326" y="462" type="line"/>
			<point x="452" y="462"/>
			<point x="548" y="376"/>
			<point x="548" y="240" type="curve" smooth="yes"/>
			<point x="548" y="104"/>
			<point x="443" y="16"/>
			<point x="326" y="16" type="curve"/>
		</contour>
	</outline>
	<anchor name="aboveLC" x="320" y="632"/>
	<anchor name="belowLC" x="310" y="-182"/>
</glyph>
<glyph name="Ya" format="2">
	<unicode hex="042F"/>
	<advance width="554"/>
	<outline>
		<contour>
			<point x="422" y="0" type="line"/>
			<point x="454" y="0" type="line"/>
			<point x="454" y="660" type="line"/>
			<point x="272" y="660" type="line" smooth="yes"/>
			<point x="142" y="660"/>
			<point x="60" y="612"/>
			<point x="60" y="490" type="curve" smooth="yes"/>
			<point x="60" y="374"/>
			<point x="142" y="318"/>
			<point x="252" y="312" type="curve" smooth="yes"/>
			<point x="422" y="312" type="line"/>
		</contour>
		<contour>
			<point x="284" y="340" type="line" smooth="yes"/>
			<point x="162" y="340"/>
			<point x="94" y="388"/>
			<point x="94" y="490" type="curve" smooth="yes"/>
			<point x="94" y="594"/>
			<point x="162" y="632"/>
			<point x="284" y="632" type="curve" smooth="yes"/>
			<point x="422" y="632" type="line"/>
			<point x="422" y="340" type="line"/>
		</contour>
		<contour>
			<point x="30" y="0" type="line"/>
			<point x="68" y="0" type="line"/>
			<point x="270" y="322" type="line"/>
			<point x="234" y="324" type="line"/>
		</contour>
	</outline>
	<anchor name="aboveUC" x="280" y="682"/>
</glyph>
<glyph name="icyr" format="2">
	<unicode hex="0438"/>
	<advance width="550"/>
	<outline>
		<contour>
			<point x="96" y="0" type="line"/>
			<point x="126" y="0" type="line"/>
			<point x="354" y="332" type="line" smooth="yes"/>
			<point x="374" y="362"/>
			<point x="404" y="406"/>
			<point x="424" y="436" type="curve"/>
			<point x="428" y="436" type="line"/>
			<point x="426" y="372"/>
			<point x="424" y="307"/>
			<point x="424" y="254" type="curve" smooth="yes"/>
			<point x="424" y="0" type="line"/>
			<point x="454" y="0" type="line"/>
			<point x="454" y="478" type="line"/>
			<point x="424" y="478" type="line"/>
			<point x="196" y="146" type="line" smooth="yes"/>
			<point x="176" y="116"/>
			<point x="146" y="72"/>
			<point x="126" y="42" type="curve"/>
			<point x="122" y="42" type="line"/>
			<point x="124" y="106"/>
			<point x="126" y="171"/>
			<point x="126" y="224" type="curve" smooth="yes"/>
			<point x="126" y="478" type="line"/>
			<point x="96" y="478" type="line"/>
		</contour>
	</outline>
	<anchor name="aboveLC" x="276" y="502"/>
</glyph>
<glyph name="ka" format="2">
	<unicode hex="043A"/>
	<advance width="452"/>
	<outline>
		<contour>
			<point x="96" y="0" type="line"/>
			<point x="126" y="0" type="line"/>
			<point x="126" y="236" type="line"/>
			<point x="260" y="236" type="line"/>
			<point x="406" y="0" type="line"/>
			<point x="440" y="0" type="line"/>
			<point x="282" y="252" type="line"/>
			<point x="336" y="378" type="line" smooth="yes"/>
			<point x="365" y="445"/>
			<point x="386" y="454"/>
			<point x="412" y="454" type="curve" smooth="yes"/>
			<point x="419" y="454"/>
			<point x="420" y="454"/>
			<point x="426" y="452" type="curve"/>
			<point x="434" y="482" type="line"/>
			<point x="430" y="484"/>
			<point x="421" y="486"/>
			<point x="414" y="486" type="curve" smooth="yes"/>
			<point x="376" y="486"/>
			<point x="347" y="473"/>
			<point x="310" y="386" type="curve" smooth="yes"/>
			<point x="258" y="264" type="line"/>
			<point x="126" y="264" type="line"/>
			<point x="126" y="478" type="line"/>
			<point x="96" y="478" type="line"/>
		</contour>
	</outline>
	<anchor name="aboveLC" x="250" y="502"/>
</glyph>
<glyph name="tse" format="2">
	<unicode hex="0446"/>
	<advance width="528"/>
	<outline>
		<contour>
			<point x="466" y="-172" type="line"/>
			<point x="492" y="-172" type="line"/>
			<point x="496" y="12" type="line"/>
			<point x="496" y="28" type="line"/>
			<point x="432" y="28" type="line"/>
			<point x="432" y="478" type="line"/>
			<point x="402" y="478" type="line"/>
			<point x="402" y="28" type="line"/>
			<point x="126" y="28" type="line"/>
			<point x="126" y="478" type="line"/>
			<point x="96" y="478" type="line"/>
			<point x="96" y="0" type="line"/>
			<point x="466" y="0" type="line"/>
		</contour>
	</outline>
	<anchor name="aboveLC" x="270" y="502"/>
</glyph>
<glyph name="yu" format="2">
	<unicode hex="044E"/>
	<advance width="708"/>
	<outline>
		<contour>
			<point x="96" y="0" type="line"/>
			<point x="126" y="0" type="line"/>
			<point x="126" y="234" type="line"/>
			<point x="268" y="234" type="line"/>
			<point x="268" y="262" type="line"/>
			<point x="126" y="262" type="line"/>
			<point x="126" y="478" type="line"/>
			<point x="96" y="478" type="line"/>
		</contour>
		<contour>
			<point x="456" y="-12" type="curve" smooth="yes"/>
			<point x="566" y="-12"/>
			<point x="654" y="80"/>
			<point x="654" y="238" type="curve" smooth="yes"/>
			<point x="654" y="398"/>
			<point x="566" y="490"/>
			<point x="456" y="490" type="curve" smooth="yes"/>
			<point x="344" y="490"/>
			<point x="256" y="398"/>
			<point x="256" y="238" type="curve" smooth="yes"/>
			<point x="256" y="80"/>
			<point x="344" y="-12"/>
		</contour>
		<contour>
			<point x="456" y="16" type="curve" smooth="yes"/>
			<point x="356" y="16"/>
			<point x="286" y="106"/>
			<point x="286" y="238" type="curve" smooth="yes"/>
			<point x="286" y="370"/>
			<point x="356" y="462"/>
			<point x="456" y="462" type="curve" smooth="yes"/>
			<point x="554" y="462"/>
			<point x="622" y="370"/>
			<point x="622" y="238" type="curve" smooth="yes"/>
			<point x="622" y="106"/>
			<point x="554" y="16"/>
		</contour>
	</outline>
	<anchor name="aboveLC" x="374" y="502"/>
</glyph>
<glyph name="yat" format="2">
	<unicode hex="0463"/>
	<advance width="556"/>
	<outline>
		<contour>
			<point x="196" y="0" type="line"/>
			<point x="332" y="0" type="line" smooth="yes"/>
			<point x="444" y="0"/>
			<point x="510" y="50"/>
			<point x="510" y="142" type="curve" smooth="yes"/>
			<point x="510" y="234"/>
			<point x="444" y="282"/>
			<point x="332" y="282" type="curve" smooth="yes"/>
			<point x="226" y="282" type="line"/>
			<point x="226" y="450" type="line"/>
			<point x="430" y="450" type="line"/>
			<point x="430" y="478" type="line"/>
			<point x="226" y="478" type="line"/>
			<point x="226" y="618" type="line"/>
			<point x="196" y="618" type="line"/>
			<point x="196" y="478" type="line"/>
			<point x="26" y="478" type="line"/>
			<point x="26" y="450" type="line"/>
			<point x="196" y="450" type="line"/>
		</contour>
		<contour>
			<point x="226" y="28" type="line"/>
			<point x="226" y="254" type="line"/>
			<point x="322" y="254" type="line" smooth="yes"/>
			<point x="427" y="254"/>
			<point x="478" y="221"/>
			<point x="478" y="142" type="curve" smooth="yes"/>
			<point x="478" y="63"/>
			<point x="427" y="28"/>
			<point x="322" y="28" type="curve" smooth="yes"/>
		</contour>
	</outline>
</glyph>
<glyph name="Izhitsa" format="2">
	<unicode hex="0474"/>
	<advance width="492"/>
	<outline>
		<contour>
			<point x="222" y="0" type="line"/>
			<point x="258" y="0" type="line"/>
			<point x="430" y="552" type="line" smooth="yes"/>
			<point x="448" y="610"/>
			<point x="462" y="634"/>
			<point x="490" y="634" type="curve" smooth="yes"/>
			<point x="500" y="634"/>
			<point x="507" y="632"/>
			<point x="512" y="630" type="curve"/>
			<point x="522" y="660" type="line"/>
			<point x="510" y="666"/>
			<point x="501" y="668"/>
			<point x="492" y="668" type="curve" smooth="yes"/>
			<point x="444" y="668"/>
			<point x="422" y="634"/>
			<point x="398" y="557" type="curve" smooth="yes"/>
			<point x="308" y="264" type="line"/>
			<point x="282" y="182"/>
			<point x="266" y="122"/>
			<point x="240" y="41" type="curve"/>
			<point x="236" y="41" type="line"/>
			<point x="208" y="122"/>
			<point x="190" y="182"/>
			<point x="164" y="264" type="curve" smooth="yes"/>
			<point x="40" y="660" type="line"/>
			<point x="6" y="660" type="line"/>
		</contour>
	</outline>
	<anchor name="aboveUC" x="240" y="682"/>
</glyph>
<glyph name="L.sups" format="2">
	<unicode hex="1D38"/>
	<advance width="305"/>
	<outline>
		<contour>
			<point x="63" y="410" type="line"/>
			<point x="294" y="410" type="line"/>
			<point x="294" y="435" type="line"/>
			<point x="92" y="435" type="line"/>
			<point x="92" y="842" type="line"/>
			<point x="63" y="842" type="line"/>
		</contour>
	</outline>
</glyph>
<glyph name="z.sups" format="2">
	<unicode hex="1DBB"/>
	<advance width="272"/>
	<outline>
		<contour>
			<point x="18" y="410" type="line"/>
			<point x="254" y="410" type="line"/>
			<point x="254" y="436" type="line"/>
			<point x="56" y="436" type="line"/>
			<point x="248" y="708" type="line"/>
			<point x="248" y="726" type="line"/>
			<point x="40" y="726" type="line"/>
			<point x="40" y="700" type="line"/>
			<point x="210" y="700" type="line"/>
			<point x="18" y="426" type="line"/>
		</contour>
	</outline>
</glyph>
<glyph name="fraction" format="2">
  <advance width="78"/>
  <unicode hex="2044"/>
  <outline>
    <contour>
      <point x="-162" y="-12" type="line"/>
      <point x="-130" y="-12" type="line"/>
      <point x="240" y="672" type="line"/>
      <point x="208" y="672" type="line"/>
    </contour>
  </outline>
</glyph>
<glyph name="franc" format="2">
  <advance width="472"/>
  <unicode hex="20A3"/>
  <outline>
    <contour>
      <point x="138" y="0" type="line"/>
      <point x="168" y="0" type="line"/>
      <point x="168" y="326" type="line"/>
      <point x="389" y="326" type="line"/>
      <point x="389" y="354" type="line"/>
      <point x="168" y="354" type="line"/>
      <point x="168" y="612" type="line"/>
      <point x="444" y="612" type="line"/>
      <point x="444" y="640" type="line"/>
      <point x="138" y="640" type="line"/>
    </contour>
    <contour>
      <point x="56" y="146" type="line"/>
      <point x="324" y="146" type="line"/>
      <point x="324" y="174" type="line"/>
      <point x="140" y="174" type="line"/>
      <point x="56" y="172" type="line"/>
    </contour>
  </outline>
</glyph>
<glyph name="naira" format="2">
	<unicode hex="20A6"/>
	<advance width="472"/>
	<outline>
		<contour>
			<point x="96" y="0" type="line"/>
			<point x="128" y="0" type="line"/>
			<point x="128" y="372" type="line"/>
			<point x="122" y="594" type="line"/>
			<point x="126" y="594" type="line"/>
			<point x="186" y="416" type="line"/>
			<point x="334" y="0" type="line"/>
			<point x="376" y="0" type="line"/>
			<point x="376" y="640" type="line"/>
			<point x="344" y="640" type="line"/>
			<point x="344" y="268" type="line"/>
			<point x="350" y="46" type="line"/>
			<point x="346" y="46" type="line"/>
			<point x="286" y="226" type="line"/>
			<point x="138" y="640" type="line"/>
			<point x="96" y="640" type="line"/>
		</contour>
		<contour>
			<point x="18" y="358" type="line"/>
			<point x="450" y="358" type="line"/>
			<point x="450" y="386" type="line"/>
			<point x="96" y="386" type="line"/>
			<point x="18" y="382" type="line"/>
		</contour>
		<contour>
			<point x="18" y="250" type="line"/>
			<point x="450" y="250" type="line"/>
			<point x="450" y="278" type="line"/>
			<point x="96" y="278" type="line"/>
			<point x="18" y="274" type="line"/>
		</contour>
	</outline>
</glyph>
<glyph name="product" format="2">
	<unicode hex="220F"/>
	<advance width="644"/>
	<outline>
		<contour>
			<point x="96" y="-120" type="line"/>
			<point x="128" y="-120" type="line"/>
			<point x="128" y="612" type="line"/>
			<point x="514" y="612" type="line"/>
			<point x="514" y="-120" type="line"/>
			<point x="548" y="-120" type="line"/>
			<point x="548" y="640" type="line"/>
			<point x="96" y="640" type="line"/>
		</contour>
	</outline>
</glyph>
<glyph name="summation" format="2">
	<unicode hex="2211"/>
	<advance width="480"/>
	<outline>
		<contour>
			<point x="18" y="-120" type="line"/>
			<point x="482" y="-120" type="line"/>
			<point x="482" y="-92" type="line"/>
			<point x="60" y="-92" type="line"/>
			<point x="60" y="-88" type="line"/>
			<point x="320" y="262" type="line"/>
			<point x="72" y="608" type="line"/>
			<point x="72" y="612" type="line"/>
			<point x="450" y="612" type="line"/>
			<point x="450" y="640" type="line"/>
			<point x="30" y="640" type="line"/>
			<point x="30" y="614" type="line"/>
			<point x="282" y="260" type="line"/>
			<point x="18" y="-94" type="line"/>
		</contour>
	</outline>
</glyph>
<glyph name="bracketangleright" format="2">
	<unicode hex="27E9"/>
	<advance width="270"/>
	<outline>
		<contour>
			<point x="48" y="-174" type="line"/>
			<point x="228" y="272" type="line"/>
			<point x="228" y="284" type="line"/>
			<point x="48" y="730" type="line"/>
			<point x="28" y="722" type="line"/>
			<point x="202" y="278" type="line"/>
			<point x="28" y="-166" type="line"/>
		</contour>
	</outline>
</glyph>
<glyph name="Aogonek.d" format="2">
	<advance width="520"/>
	<outline>
		<contour>
			<point x="272" y="-214" type="curve" smooth="yes"/>
			<point x="302" y="-214"/>
			<point x="328" y="-200"/>
			<point x="344" y="-186" type="curve"/>
			<point x="330" y="-166" type="line"/>
			<point x="312" y="-180"/>
			<point x="296" y="-186"/>
			<point x="274" y="-186" type="curve" smooth="yes"/>
			<point x="244" y="-186"/>
			<point x="214" y="-168"/>
			<point x="214" y="-126" type="curve" smooth="yes"/>
			<point x="214" y="-88"/>
			<point x="244" y="-40"/>
			<point x="290" y="-8" type="curve"/>
			<point x="274" y="12" type="line"/>
			<point x="226" y="-22"/>
			<point x="184" y="-74"/>
			<point x="184" y="-128" type="curve" smooth="yes"/>
			<point x="184" y="-188"/>
			<point x="224" y="-214"/>
		</contour>
		<component base="A"/>
	</outline>
	<anchor name="aboveUC" x="260" y="682"/>
</glyph>
<glyph name="Delta.sc" format="2">
	<advance width="469"/>
	<outline>
		<contour>
			<point x="26" y="0" type="line"/>
			<point x="444" y="0" type="line"/>
			<point x="444" y="18" type="line"/>
			<point x="250" y="510" type="line"/>
			<point x="220" y="510" type="line"/>
			<point x="26" y="18" type="line"/>
		</contour>
		<contour>
			<point x="61" y="27" type="line"/>
			<point x="168" y="299" type="line"/>
			<point x="234" y="472" type="line"/>
			<point x="237" y="472" type="line"/>
			<point x="302" y="299" type="line"/>
			<point x="409" y="27" type="line"/>
		</contour>
	</outline>
	<anchor name="aboveUC" x="230" y="562"/>
</glyph>
<glyph name="Eng.a" format="2">
	<advance width="632"/>
	<outline>
		<contour>
			<point x="434" y="-152" type="curve" smooth="yes"/>
			<point x="500" y="-152"/>
			<point x="532" y="-113"/>
			<point x="532" y="-20" type="curve" smooth="yes"/>
			<point x="532" y="660" type="line"/>
			<point x="502" y="660" type="line"/>
			<point x="502" y="232" type="line" smooth="yes"/>
			<point x="502" y="170"/>
			<point x="504" y="110"/>
			<point x="506" y="46" type="curve"/>
			<point x="502" y="46" type="line"/>
			<point x="478" y="88"/>
			<point x="452" y="132"/>
			<point x="426" y="176" type="curve" smooth="yes"/>
			<point x="134" y="660" type="line"/>
			<point x="100" y="660" type="line"/>
			<point x="100" y="0" type="line"/>
			<point x="130" y="0" type="line"/>
			<point x="130" y="434" type="line" smooth="yes"/>
			<point x="130" y="496"/>
			<point x="128" y="552"/>
			<point x="126" y="614" type="curve"/>
			<point x="130" y="614" type="line"/>
			<point x="154" y="572"/>
			<point x="180" y="528"/>
			<point x="206" y="484" type="curve" smooth="yes"/>
			<point x="498" y="0" type="line"/>
			<point x="502" y="0" type="line"/>
			<point x="502" y="-76"/>
			<point x="492" y="-120"/>
			<point x="436" y="-120" type="curve" smooth="yes"/>
			<point x="416" y="-120"/>
			<point x="398" y="-116"/>
			<point x="384" y="-112" type="curve"/>
			<point x="376" y="-140" type="line"/>
			<point x="392" y="-148"/>
			<point x="414" y="-152"/>
		</contour>
	</outline>
	<anchor name="aboveUC" x="330" y="682"/>
	<anchor name="belowLC" x="320" y="-222"/>
</glyph>
<glyph name="Eopen.sc" format="2">
	<advance width="454"/>
	<outline>
		<contour>
			<point x="232" y="-12" type="curve" smooth="yes"/>
			<point x="324" y="-12"/>
			<point x="370" y="14"/>
			<point x="426" y="64" type="curve"/>
			<point x="408" y="84" type="line"/>
			<point x="354" y="34"/>
			<point x="308" y="18"/>
			<point x="232" y="18" type="curve" smooth="yes"/>
			<point x="150" y="18"/>
			<point x="78" y="62"/>
			<point x="78" y="142" type="curve" smooth="yes"/>
			<point x="78" y="220"/>
			<point x="148" y="258"/>
			<point x="262" y="258" type="curve" smooth="yes"/>
			<point x="316" y="258" type="line"/>
			<point x="316" y="284" type="line"/>
			<point x="278" y="284" type="line" smooth="yes"/>
			<point x="158" y="284"/>
			<point x="108" y="320"/>
			<point x="108" y="392" type="curve" smooth="yes"/>
			<point x="108" y="452"/>
			<point x="164" y="492"/>
			<point x="238" y="492" type="curve" smooth="yes"/>
			<point x="294" y="492"/>
			<point x="348" y="472"/>
			<point x="378" y="440" type="curve"/>
			<point x="396" y="458" type="line"/>
			<point x="364" y="494"/>
			<point x="304" y="522"/>
			<point x="238" y="522" type="curve" smooth="yes"/>
			<point x="150" y="522"/>
			<point x="76" y="470"/>
			<point x="76" y="390" type="curve" smooth="yes"/>
			<point x="76" y="334"/>
			<point x="110" y="290"/>
			<point x="168" y="274" type="curve"/>
			<point x="168" y="270" type="line"/>
			<point x="98" y="260"/>
			<point x="46" y="216"/>
			<point x="46" y="140" type="curve" smooth="yes"/>
			<point x="46" y="48"/>
			<point x="130" y="-12"/>
		</contour>
	</outline>
	<anchor name="aboveUC" x="230" y="562"/>
	<anchor name="baseLC" x="240" y="0"/>
	<anchor name="belowLC" x="240" y="-22"/>
	<anchor name="ogonekUC" x="250" y="0"/>
</glyph>
<glyph name="Fhook.sc" format="2">
	<advance width="417"/>
	<outline>
		<contour>
			<point x="45" y="-138" type="curve" smooth="yes"/>
			<point x="102" y="-138"/>
			<point x="129" y="-100"/>
			<point x="130" y="-12" type="curve" smooth="yes"/>
			<point x="132" y="248" type="line"/>
			<point x="357" y="248" type="line"/>
			<point x="357" y="275" type="line"/>
			<point x="132" y="275" type="line"/>
			<point x="132" y="483" type="line"/>
			<point x="399" y="483" type="line"/>
			<point x="399" y="510" type="line"/>
			<point x="100" y="510" type="line"/>
			<point x="100" y="0" type="line" smooth="yes"/>
			<point x="100" y="-69"/>
			<point x="92" y="-109"/>
			<point x="45" y="-109" type="curve" smooth="yes"/>
			<point x="29" y="-109"/>
			<point x="12" y="-104"/>
			<point x="2" y="-101" type="curve"/>
			<point x="-5" y="-128" type="line"/>
			<point x="7" y="-133"/>
			<point x="27" y="-138"/>
		</contour>
	</outline>
	<anchor name="aboveUC" x="263" y="562"/>
	<anchor name="belowLC" x="116" y="-22"/>
</glyph>
<glyph name="Germandbls.sc" format="2">
	<advance width="560"/>
	<outline>
		<contour>
			<point x="363" y="-12" type="curve" smooth="yes"/>
			<point x="450" y="-12"/>
			<point x="514" y="52"/>
			<point x="514" y="128" type="curve" smooth="yes"/>
			<point x="514" y="200"/>
			<point x="471" y="260"/>
			<point x="329" y="280" type="curve"/>
			<point x="463" y="413" type="line"/>
			<point x="430" y="476"/>
			<point x="382" y="522"/>
			<point x="300" y="522" type="curve" smooth="yes"/>
			<point x="186" y="522"/>
			<point x="100" y="450"/>
			<point x="100" y="326" type="curve" smooth="yes"/>
			<point x="100" y="0" type="line"/>
			<point x="132" y="0" type="line"/>
			<point x="132" y="316" type="line" smooth="yes"/>
			<point x="132" y="436"/>
			<point x="196" y="492"/>
			<point x="298" y="492" type="curve" smooth="yes"/>
			<point x="363" y="492"/>
			<point x="404" y="456"/>
			<point x="426" y="414" type="curve"/>
			<point x="293" y="282" type="line"/>
			<point x="295" y="257" type="line"/>
			<point x="450" y="234"/>
			<point x="480" y="188"/>
			<point x="480" y="128" type="curve" smooth="yes"/>
			<point x="480" y="66"/>
			<point x="439" y="18"/>
			<point x="364" y="18" type="curve" smooth="yes"/>
			<point x="312" y="18"/>
			<point x="272" y="36"/>
			<point x="236" y="74" type="curve"/>
			<point x="214" y="50" type="line"/>
			<point x="250" y="12"/>
			<point x="305" y="-12"/>
		</contour>
	</outline>
</glyph>
<glyph name="Ginsular.sc" format="2">
	<advance width="506"/>
	<outline>
		<contour>
			<point x="258" y="-138" type="curve" smooth="yes"/>
			<point x="406" y="-138"/>
			<point x="480" y="-70"/>
			<point x="480" y="10" type="curve" smooth="yes"/>
			<point x="480" y="92"/>
			<point x="424" y="124"/>
			<point x="304" y="166" type="curve" smooth="yes"/>
			<point x="178" y="210"/>
			<point x="114" y="256"/>
			<point x="114" y="338" type="curve" smooth="yes"/>
			<point x="114" y="411"/>
			<point x="168" y="482"/>
			<point x="316" y="482" type="curve" smooth="yes"/>
			<point x="470" y="482" type="line"/>
			<point x="470" y="510" type="line"/>
			<point x="30" y="510" type="line"/>
			<point x="30" y="482" type="line"/>
			<point x="192" y="482" type="line"/>
			<point x="192" y="479" type="line"/>
			<point x="122" y="455"/>
			<point x="82" y="411"/>
			<point x="82" y="338" type="curve" smooth="yes"/>
			<point x="82" y="255"/>
			<point x="135" y="216"/>
			<point x="198" y="178" type="curve"/>
			<point x="198" y="174" type="line"/>
			<point x="114" y="136"/>
			<point x="52" y="82"/>
			<point x="52" y="8" type="curve" smooth="yes"/>
			<point x="52" y="-92"/>
			<point x="136" y="-138"/>
		</contour>
		<contour>
			<point x="258" y="-108" type="curve" smooth="yes"/>
			<point x="156" y="-108"/>
			<point x="84" y="-74"/>
			<point x="84" y="8" type="curve" smooth="yes"/>
			<point x="84" y="70"/>
			<point x="132" y="120"/>
			<point x="228" y="162" type="curve"/>
			<point x="350" y="116"/>
			<point x="448" y="100"/>
			<point x="448" y="8" type="curve" smooth="yes"/>
			<point x="448" y="-56"/>
			<point x="386" y="-108"/>
		</contour>
	</outline>
	<anchor name="aboveUC" x="270" y="562"/>
	<anchor name="belowLC" x="260" y="-142"/>
</glyph>
<glyph name="Istroke.as" format="2">
	<advance width="300"/>
	<outline>
		<contour>
			<point x="52" y="260" type="line"/>
			<point x="242" y="260" type="line"/>
			<point x="242" y="286" type="line"/>
			<point x="136" y="286" type="line"/>
			<point x="52" y="282" type="line"/>
		</contour>
		<component base="I.as"/>
	</outline>
	<anchor name="aboveUC" x="150" y="562"/>
	<anchor name="belowLC" x="150" y="-22"/>
</glyph>
<glyph name="Kadescender.sc" format="2">
	<advance width="530"/>
	<outline>
		<contour>
			<point x="464" y="-172" type="line"/>
			<point x="490" y="-172" type="line"/>
			<point x="494" y="12" type="line"/>
			<point x="494" y="28" type="line"/>
			<point x="446" y="28" type="line"/>
			<point x="446" y="0" type="line"/>
			<point x="464" y="0" type="line"/>
		</contour>
		<component base="Ka.sc"/>
	</outline>
</glyph>
<glyph name="Kahook.sc" format="2">
	<advance width="490"/>
	<outline>
		<contour>
			<point x="284" y="-138" type="curve" smooth="yes"/>
			<point x="396" y="-138"/>
			<point x="462" y="-54"/>
			<point x="462" y="82" type="curve" smooth="yes"/>
			<point x="462" y="214"/>
			<point x="364" y="284"/>
			<point x="250" y="284" type="curve"/>
			<point x="276" y="272" type="line"/>
			<point x="360" y="412" type="line" smooth="yes"/>
			<point x="399" y="478"/>
			<point x="416" y="486"/>
			<point x="440" y="486" type="curve" smooth="yes"/>
			<point x="446" y="486"/>
			<point x="450" y="486"/>
			<point x="456" y="484" type="curve"/>
			<point x="464" y="514" type="line"/>
			<point x="458" y="516"/>
			<point x="449" y="518"/>
			<point x="442" y="518" type="curve" smooth="yes"/>
			<point x="402" y="518"/>
			<point x="381" y="504"/>
			<point x="334" y="426" type="curve" smooth="yes"/>
			<point x="250" y="286" type="line"/>
			<point x="132" y="286" type="line"/>
			<point x="132" y="510" type="line"/>
			<point x="100" y="510" type="line"/>
			<point x="100" y="0" type="line"/>
			<point x="132" y="0" type="line"/>
			<point x="132" y="258" type="line"/>
			<point x="248" y="258" type="line" smooth="yes"/>
			<point x="346" y="258"/>
			<point x="430" y="196"/>
			<point x="430" y="82" type="curve" smooth="yes"/>
			<point x="430" y="-32"/>
			<point x="378" y="-110"/>
			<point x="286" y="-110" type="curve" smooth="yes"/>
			<point x="270" y="-110"/>
			<point x="260" y="-108"/>
			<point x="244" y="-102" type="curve"/>
			<point x="236" y="-126" type="line"/>
			<point x="250" y="-134"/>
			<point x="268" y="-138"/>
		</contour>
	</outline>
</glyph>
<glyph name="Khook.sc" format="2">
	<advance width="482"/>
	<outline>
		<contour>
			<point x="100" y="0" type="line"/>
			<point x="132" y="0" type="line"/>
			<point x="132" y="180" type="line"/>
			<point x="250" y="300" type="line"/>
			<point x="434" y="0" type="line"/>
			<point x="470" y="0" type="line"/>
			<point x="272" y="322" type="line"/>
			<point x="450" y="510" type="line"/>
			<point x="412" y="510" type="line"/>
			<point x="134" y="222" type="line"/>
			<point x="132" y="222" type="line"/>
			<point x="132" y="510" type="line"/>
			<point x="100" y="510" type="line"/>
		</contour>
		<contour>
			<point x="360" y="412" type="move"/>
			<point x="399" y="478"/>
			<point x="416" y="486"/>
			<point x="440" y="486" type="curve" smooth="yes"/>
			<point x="446" y="486"/>
			<point x="450" y="486"/>
			<point x="456" y="484" type="curve"/>
			<point x="464" y="514" type="line"/>
			<point x="458" y="516"/>
			<point x="449" y="518"/>
			<point x="442" y="518" type="curve" smooth="yes"/>
			<point x="402" y="518"/>
			<point x="381" y="504"/>
			<point x="334" y="426" type="curve"/>
		</contour>
	</outline>
	<anchor name="aboverightUC" x="440" y="562"/>
	<anchor name="aboveUC" x="278" y="562"/>
	<anchor name="belowLC" x="284" y="-22"/>
</glyph>
<glyph name="L.sc" format="2">
	<advance width="410"/>
	<outline>
		<contour>
			<point x="100" y="0" type="line"/>
			<point x="390" y="0" type="line"/>
			<point x="390" y="28" type="line"/>
			<point x="132" y="28" type="line"/>
			<point x="132" y="510" type="line"/>
			<point x="100" y="510" type="line"/>
		</contour>
	</outline>
	<anchor name="aboveUC" x="120" y="562"/>
	<anchor name="belowLC" x="260" y="-22"/>
	<anchor name="center" x="120" y="260"/>
</glyph>
<glyph name="Nhookleft.sc" format="2">
	<advance width="568"/>
	<outline>
		<contour>
			<point x="45" y="-138" type="curve" smooth="yes"/>
			<point x="102" y="-138"/>
			<point x="130" y="-100"/>
			<point x="130" y="-12" type="curve" smooth="yes"/>
			<point x="130" y="324" type="line" smooth="yes"/>
			<point x="130" y="372"/>
			<point x="128" y="418"/>
			<point x="126" y="468" type="curve"/>
			<point x="130" y="468" type="line"/>
			<point x="152" y="430"/>
			<point x="172" y="396"/>
			<point x="192" y="366" type="curve" smooth="yes"/>
			<point x="434" y="0" type="line"/>
			<point x="468" y="0" type="line"/>
			<point x="468" y="510" type="line"/>
			<point x="438" y="510" type="line"/>
			<point x="438" y="186" type="line" smooth="yes"/>
			<point x="438" y="138"/>
			<point x="440" y="92"/>
			<point x="442" y="42" type="curve"/>
			<point x="438" y="42" type="line"/>
			<point x="416" y="80"/>
			<point x="396" y="114"/>
			<point x="376" y="144" type="curve" smooth="yes"/>
			<point x="134" y="510" type="line"/>
			<point x="100" y="510" type="line"/>
			<point x="100" y="0" type="line" smooth="yes"/>
			<point x="100" y="-69"/>
			<point x="92" y="-109"/>
			<point x="45" y="-109" type="curve" smooth="yes"/>
			<point x="29" y="-109"/>
			<point x="12" y="-104"/>
			<point x="2" y="-101" type="curve"/>
			<point x="-5" y="-128" type="line"/>
			<point x="7" y="-133"/>
			<point x="27" y="-138"/>
		</contour>
	</outline>
	<anchor name="aboveUC" x="290" y="562"/>
	<anchor name="belowLC" x="290" y="-22"/>
</glyph>
<glyph name="Rinsular.x" format="2">
	<advance width="534"/>
	<outline>
		<contour>
			<point x="100" y="0" type="line"/>
			<point x="132" y="0" type="line"/>
			<point x="132" y="532" type="line"/>
			<point x="188" y="612"/>
			<point x="254" y="642"/>
			<point x="312" y="642" type="curve" smooth="yes"/>
			<point x="384" y="642"/>
			<point x="428" y="594"/>
			<point x="428" y="512" type="curve" smooth="yes"/>
			<point x="428" y="442"/>
			<point x="390" y="364"/>
			<point x="238" y="282" type="curve"/>
			<point x="238" y="256" type="line"/>
			<point x="466" y="0" type="line"/>
			<point x="506" y="0" type="line"/>
			<point x="268" y="266" type="line"/>
			<point x="402" y="342"/>
			<point x="462" y="426"/>
			<point x="462" y="512" type="curve" smooth="yes"/>
			<point x="462" y="612"/>
			<point x="404" y="672"/>
			<point x="314" y="672" type="curve" smooth="yes"/>
			<point x="242" y="672"/>
			<point x="182" y="640"/>
			<point x="132" y="570" type="curve"/>
			<point x="132" y="660" type="line"/>
			<point x="100" y="660" type="line"/>
		</contour>
	</outline>
</glyph>
<glyph name="Sho.sc" format="2">
	<advance width="454"/>
	<outline>
		<contour>
			<point x="100" y="-8" type="line"/>
			<point x="132" y="-8" type="line"/>
			<point x="132" y="68" type="line"/>
			<point x="168" y="68" type="line" smooth="yes"/>
			<point x="316" y="68"/>
			<point x="406" y="141"/>
			<point x="406" y="256" type="curve" smooth="yes"/>
			<point x="406" y="370"/>
			<point x="316" y="440"/>
			<point x="168" y="440" type="curve" smooth="yes"/>
			<point x="132" y="440" type="line"/>
			<point x="132" y="518" type="line"/>
			<point x="100" y="518" type="line"/>
		</contour>
		<contour>
			<point x="132" y="94" type="line"/>
			<point x="132" y="414" type="line"/>
			<point x="168" y="414" type="line" smooth="yes"/>
			<point x="296" y="414"/>
			<point x="372" y="352"/>
			<point x="372" y="256" type="curve" smooth="yes"/>
			<point x="372" y="159"/>
			<point x="296" y="94"/>
			<point x="168" y="94" type="curve" smooth="yes"/>
		</contour>
	</outline>
</glyph>
<glyph name="Tshe.sc" format="2">
	<advance width="588"/>
	<outline>
		<contour>
			<point x="192" y="0" type="line"/>
			<point x="224" y="0" type="line"/>
			<point x="224" y="268" type="line"/>
			<point x="254" y="274"/>
			<point x="284" y="278"/>
			<point x="330" y="278" type="curve" smooth="yes"/>
			<point x="428" y="278"/>
			<point x="484" y="248"/>
			<point x="484" y="153" type="curve" smooth="yes"/>
			<point x="484" y="0" type="line"/>
			<point x="516" y="0" type="line"/>
			<point x="516" y="153" type="line" smooth="yes"/>
			<point x="516" y="266"/>
			<point x="448" y="306"/>
			<point x="332" y="306" type="curve" smooth="yes"/>
			<point x="286" y="306"/>
			<point x="252" y="302"/>
			<point x="224" y="296" type="curve"/>
			<point x="224" y="482" type="line"/>
			<point x="430" y="482" type="line"/>
			<point x="430" y="510" type="line"/>
			<point x="30" y="510" type="line"/>
			<point x="30" y="482" type="line"/>
			<point x="192" y="482" type="line"/>
		</contour>
	</outline>
</glyph>
<glyph name="Zhe.sc" format="2">
	<advance width="642"/>
	<outline>
		<contour>
			<point x="10" y="0" type="line"/>
			<point x="46" y="0" type="line"/>
			<point x="210" y="258" type="line"/>
			<point x="306" y="258" type="line"/>
			<point x="306" y="0" type="line"/>
			<point x="336" y="0" type="line"/>
			<point x="336" y="258" type="line"/>
			<point x="432" y="258" type="line"/>
			<point x="596" y="0" type="line"/>
			<point x="632" y="0" type="line"/>
			<point x="456" y="274" type="line"/>
			<point x="524" y="412" type="line" smooth="yes"/>
			<point x="556" y="477"/>
			<point x="574" y="486"/>
			<point x="604" y="486" type="curve" smooth="yes"/>
			<point x="608" y="486"/>
			<point x="614" y="486"/>
			<point x="621" y="484" type="curve"/>
			<point x="626" y="516" type="line"/>
			<point x="622" y="517"/>
			<point x="614" y="518"/>
			<point x="606" y="518" type="curve" smooth="yes"/>
			<point x="562" y="518"/>
			<point x="535" y="503"/>
			<point x="496" y="422" type="curve" smooth="yes"/>
			<point x="430" y="286" type="line"/>
			<point x="336" y="286" type="line"/>
			<point x="336" y="510" type="line"/>
			<point x="306" y="510" type="line"/>
			<point x="306" y="286" type="line"/>
			<point x="212" y="286" type="line"/>
			<point x="146" y="422" type="line" smooth="yes"/>
			<point x="107" y="503"/>
			<point x="80" y="518"/>
			<point x="36" y="518" type="curve" smooth="yes"/>
			<point x="28" y="518"/>
			<point x="20" y="517"/>
			<point x="16" y="516" type="curve"/>
			<point x="21" y="484" type="line"/>
			<point x="28" y="486"/>
			<point x="34" y="486"/>
			<point x="38" y="486" type="curve" smooth="yes"/>
			<point x="68" y="486"/>
			<point x="86" y="477"/>
			<point x="118" y="412" type="curve" smooth="yes"/>
			<point x="186" y="274" type="line"/>
		</contour>
	</outline>
	<anchor name="aboveUC" x="320" y="562"/>
</glyph>
<glyph name="astroke.a" format="2">
	<advance width="540"/>
	<outline>
		<contour>
			<point x="156" y="-42" type="line"/>
			<point x="392" y="508" type="line"/>
			<point x="366" y="518" type="line"/>
			<point x="130" y="-32" type="line"/>
		</contour>
		<component base="a.a"/>
	</outline>
	<anchor name="aboveLC" x="270" y="502"/>
	<anchor name="belowLC" x="270" y="-22"/>
</glyph>
<glyph name="caroncmb.cap" format="2">
	<outline>
		<contour>
			<point x="-10" y="712" type="line"/>
			<point x="10" y="712" type="line"/>
			<point x="150" y="830" type="line"/>
			<point x="116" y="830" type="line"/>
			<point x="2" y="742" type="line"/>
			<point x="-2" y="742" type="line"/>
			<point x="-116" y="830" type="line"/>
			<point x="-150" y="830" type="line"/>
		</contour>
	</outline>
	<anchor name="_aboveUC" x="0" y="682"/>
	<anchor name="aboveUC" x="0" y="842"/>
</glyph>
<glyph name="caroncomma" format="2">
	<outline>
		<contour>
			<point x="-10" y="570" type="line"/>
			<point x="10" y="570" type="line"/>
			<point x="140" y="704" type="line"/>
			<point x="110" y="704" type="line"/>
			<point x="2" y="604" type="line"/>
			<point x="-2" y="604" type="line"/>
			<point x="-110" y="704" type="line"/>
			<point x="-140" y="704" type="line"/>
		</contour>
		<component base="commaabovecmb.cap" yOffset="-40"/>
	</outline>
	<anchor name="_aboveLC" x="0" y="502"/>
</glyph>
<glyph name="carondotaccent.cap" format="2">
	<outline>
		<contour>
			<point x="-10" y="712" type="line"/>
			<point x="10" y="712" type="line"/>
			<point x="150" y="812" type="line"/>
			<point x="110" y="812" type="line"/>
			<point x="2" y="748" type="line"/>
			<point x="-2" y="748" type="line"/>
			<point x="-110" y="812" type="line"/>
			<point x="-150" y="812" type="line"/>
		</contour>
		<contour>
			<point x="0" y="824" type="curve" smooth="yes"/>
			<point x="18" y="824"/>
			<point x="34" y="838"/>
			<point x="34" y="860" type="curve" smooth="yes"/>
			<point x="34" y="880"/>
			<point x="18" y="894"/>
			<point x="0" y="894" type="curve" smooth="yes"/>
			<point x="-18" y="894"/>
			<point x="-34" y="880"/>
			<point x="-34" y="860" type="curve" smooth="yes"/>
			<point x="-34" y="838"/>
			<point x="-18" y="824"/>
		</contour>
	</outline>
	<anchor name="_aboveUC" x="0" y="682"/>
</glyph>
<glyph name="circumflexbreve.cap" format="2">
	<outline>
		<contour>
			<point x="-130" y="710" type="line"/>
			<point x="-94" y="710" type="line"/>
			<point x="-2" y="778" type="line"/>
			<point x="2" y="778" type="line"/>
			<point x="94" y="710" type="line"/>
			<point x="130" y="710" type="line"/>
			<point x="10" y="810" type="line"/>
			<point x="-10" y="810" type="line"/>
		</contour>
		<contour>
			<point x="0" y="834" type="curve" smooth="yes"/>
			<point x="80" y="834"/>
			<point x="117" y="879"/>
			<point x="122" y="916" type="curve"/>
			<point x="96" y="920" type="line"/>
			<point x="91" y="888"/>
			<point x="61" y="860"/>
			<point x="0" y="860" type="curve" smooth="yes"/>
			<point x="-61" y="860"/>
			<point x="-91" y="888"/>
			<point x="-96" y="920" type="curve"/>
			<point x="-122" y="916" type="line"/>
			<point x="-117" y="879"/>
			<point x="-80" y="834"/>
		</contour>
	</outline>
	<anchor name="_aboveUC" x="0" y="682"/>
</glyph>
<glyph name="dieresiscaron" format="2">
	<outline>
		<contour>
			<point x="-86" y="602" type="curve" smooth="yes"/>
			<point x="-68" y="602"/>
			<point x="-54" y="616"/>
			<point x="-54" y="634" type="curve" smooth="yes"/>
			<point x="-54" y="652"/>
			<point x="-68" y="666"/>
			<point x="-86" y="666" type="curve" smooth="yes"/>
			<point x="-104" y="666"/>
			<point x="-118" y="652"/>
			<point x="-118" y="634" type="curve" smooth="yes"/>
			<point x="-118" y="616"/>
			<point x="-104" y="602"/>
		</contour>
		<contour>
			<point x="86" y="602" type="curve" smooth="yes"/>
			<point x="104" y="602"/>
			<point x="118" y="616"/>
			<point x="118" y="634" type="curve" smooth="yes"/>
			<point x="118" y="652"/>
			<point x="104" y="666"/>
			<point x="86" y="666" type="curve" smooth="yes"/>
			<point x="68" y="666"/>
			<point x="54" y="652"/>
			<point x="54" y="634" type="curve" smooth="yes"/>
			<point x="54" y="616"/>
			<point x="68" y="602"/>
		</contour>
		<contour>
			<point x="-10" y="688" type="line"/>
			<point x="10" y="688" type="line"/>
			<point x="140" y="788" type="line"/>
			<point x="106" y="788" type="line"/>
			<point x="2" y="718" type="line"/>
			<point x="-2" y="718" type="line"/>
			<point x="-106" y="788" type="line"/>
			<point x="-140" y="788" type="line"/>
		</contour>
	</outline>
	<anchor name="_aboveLC" x="0" y="502"/>
</glyph>
<glyph name="esh.sups" format="2">
	<advance width="152"/>
	<outline>
		<contour>
			<point x="20" y="258" type="curve" smooth="yes"/>
			<point x="66" y="258"/>
			<point x="90" y="286"/>
			<point x="90" y="356" type="curve" smooth="yes"/>
			<point x="90" y="796" type="line" smooth="yes"/>
			<point x="90" y="836"/>
			<point x="106" y="866"/>
			<point x="140" y="866" type="curve" smooth="yes"/>
			<point x="158" y="866"/>
			<point x="170" y="862"/>
			<point x="180" y="858" type="curve"/>
			<point x="188" y="882" type="line"/>
			<point x="170" y="890"/>
			<point x="158" y="892"/>
			<point x="140" y="892" type="curve" smooth="yes"/>
			<point x="90" y="892"/>
			<point x="62" y="854"/>
			<point x="62" y="792" type="curve" smooth="yes"/>
			<point x="62" y="352" type="line" smooth="yes"/>
			<point x="62" y="312"/>
			<point x="54" y="286"/>
			<point x="18" y="286" type="curve" smooth="yes"/>
			<point x="4" y="286"/>
			<point x="-2" y="288"/>
			<point x="-12" y="292" type="curve"/>
			<point x="-20" y="266" type="line"/>
			<point x="-4" y="260"/>
			<point x="4" y="258"/>
		</contour>
	</outline>
</glyph>
<glyph name="ka.b" format="2">
	<advance width="452"/>
	<outline>
		<contour>
			<point x="96" y="0" type="line"/>
			<point x="126" y="0" type="line"/>
			<point x="126" y="236" type="line"/>
			<point x="256" y="236" type="line"/>
			<point x="406" y="0" type="line"/>
			<point x="440" y="0" type="line"/>
			<point x="278" y="252" type="line"/>
			<point x="332" y="378" type="line" smooth="yes"/>
			<point x="362" y="448"/>
			<point x="382" y="458"/>
			<point x="408" y="458" type="curve" smooth="yes"/>
			<point x="415" y="458"/>
			<point x="416" y="458"/>
			<point x="422" y="456" type="curve"/>
			<point x="430" y="486" type="line"/>
			<point x="426" y="488"/>
			<point x="417" y="490"/>
			<point x="410" y="490" type="curve" smooth="yes"/>
			<point x="372" y="490"/>
			<point x="344" y="476"/>
			<point x="306" y="386" type="curve" smooth="yes"/>
			<point x="254" y="264" type="line"/>
			<point x="126" y="264" type="line"/>
			<point x="126" y="722" type="line"/>
			<point x="96" y="722" type="line"/>
		</contour>
	</outline>
</glyph>
<glyph name="lenisacutecmb" format="2">
	<outline>
		<contour>
			<point x="-82" y="558" type="line"/>
			<point x="-36" y="572"/>
			<point x="6" y="606"/>
			<point x="6" y="660" type="curve" smooth="yes"/>
			<point x="6" y="714"/>
			<point x="-50" y="734"/>
			<point x="-108" y="736" type="curve"/>
			<point x="-110" y="710" type="line"/>
			<point x="-56" y="708"/>
			<point x="-24" y="692"/>
			<point x="-24" y="656" type="curve" smooth="yes"/>
			<point x="-24" y="624"/>
			<point x="-50" y="594"/>
			<point x="-90" y="582" type="curve"/>
		</contour>
		<contour>
			<point x="30" y="560" type="line"/>
			<point x="54" y="560" type="line"/>
			<point x="110" y="726" type="line"/>
			<point x="108" y="730" type="line"/>
			<point x="74" y="730" type="line"/>
		</contour>
	</outline>
	<anchor name="_aboveLC" x="0" y="502"/>
</glyph>
<glyph name="ogonekcmb.cap" format="2">
	<outline>
		<contour>
			<point x="14" y="-214" type="curve" smooth="yes"/>
			<point x="44" y="-214"/>
			<point x="70" y="-200"/>
			<point x="86" y="-186" type="curve"/>
			<point x="72" y="-166" type="line"/>
			<point x="54" y="-180"/>
			<point x="38" y="-186"/>
			<point x="16" y="-186" type="curve" smooth="yes"/>
			<point x="-14" y="-186"/>
			<point x="-44" y="-168"/>
			<point x="-44" y="-126" type="curve" smooth="yes"/>
			<point x="-44" y="-82"/>
			<point x="-10" y="-38"/>
			<point x="26" y="0" type="curve"/>
			<point x="-2" y="0" type="line"/>
			<point x="-40" y="-36"/>
			<point x="-74" y="-78"/>
			<point x="-74" y="-128" type="curve" smooth="yes"/>
			<point x="-74" y="-188"/>
			<point x="-34" y="-214"/>
		</contour>
	</outline>
	<anchor name="_ogonekUC" x="0" y="0"/>
</glyph>
<glyph name="one.cap" format="2">
	<advance width="472"/>
	<outline>
		<contour>
			<point x="86" y="0" type="line"/>
			<point x="410" y="0" type="line"/>
			<point x="410" y="28" type="line"/>
			<point x="268" y="28" type="line"/>
			<point x="268" y="660" type="line"/>
			<point x="242" y="660" type="line"/>
			<point x="214" y="644"/>
			<point x="174" y="630"/>
			<point x="124" y="622" type="curve"/>
			<point x="124" y="600" type="line"/>
			<point x="238" y="600" type="line"/>
			<point x="238" y="28" type="line"/>
			<point x="86" y="28" type="line"/>
		</contour>
	</outline>
</glyph>
<glyph name="parenright.sc" format="2">
	<advance width="270"/>
	<outline>
		<contour>
			<point x="48" y="-124" type="line"/>
			<point x="130" y="-16"/>
			<point x="180" y="104"/>
			<point x="180" y="248" type="curve" smooth="yes"/>
			<point x="180" y="392"/>
			<point x="130" y="512"/>
			<point x="48" y="620" type="curve"/>
			<point x="30" y="608" type="line"/>
			<point x="110" y="506"/>
			<point x="152" y="376"/>
			<point x="152" y="248" type="curve" smooth="yes"/>
			<point x="152" y="120"/>
			<point x="110" y="-10"/>
			<point x="30" y="-112" type="curve"/>
		</contour>
	</outline>
</glyph>
<glyph name="three.sc" format="2">
	<advance width="430"/>
	<outline>
		<contour>
			<point x="204" y="-12" type="curve" smooth="yes"/>
			<point x="301" y="-12"/>
			<point x="375" y="45"/>
			<point x="375" y="133" type="curve" smooth="yes"/>
			<point x="375" y="207"/>
			<point x="316" y="254"/>
			<point x="245" y="268" type="curve"/>
			<point x="245" y="271" type="line"/>
			<point x="305" y="290"/>
			<point x="354" y="330"/>
			<point x="354" y="398" type="curve" smooth="yes"/>
			<point x="354" y="476"/>
			<point x="287" y="522"/>
			<point x="202" y="522" type="curve" smooth="yes"/>
			<point x="135" y="522"/>
			<point x="86" y="494"/>
			<point x="49" y="459" type="curve"/>
			<point x="67" y="438" type="line"/>
			<point x="100" y="473"/>
			<point x="149" y="495"/>
			<point x="202" y="495" type="curve" smooth="yes"/>
			<point x="274" y="495"/>
			<point x="322" y="456"/>
			<point x="322" y="396" type="curve" smooth="yes"/>
			<point x="322" y="333"/>
			<point x="273" y="282"/>
			<point x="138" y="282" type="curve"/>
			<point x="138" y="255" type="line"/>
			<point x="284" y="255"/>
			<point x="343" y="205"/>
			<point x="343" y="132" type="curve" smooth="yes"/>
			<point x="343" y="63"/>
			<point x="285" y="16"/>
			<point x="205" y="16" type="curve" smooth="yes"/>
			<point x="123" y="16"/>
			<point x="77" y="48"/>
			<point x="43" y="82" type="curve"/>
			<point x="24" y="61" type="line"/>
			<point x="59" y="26"/>
			<point x="112" y="-12"/>
		</contour>
	</outline>
</glyph>
